<svg width="421" height="451" viewBox="0 0 421 451" fill="none" xmlns="http://www.w3.org/2000/svg">
<path d="M11 8.5C13.7614 5.73858 18.2386 5.73858 21 8.5C23.7614 11.2614 23.7614 15.7386 21 18.5C18.2386 21.2614 13.7614 21.2614 11 18.5C8.23858 15.7386 8.23858 11.2614 11 8.5Z" fill="#232323"/>
<path d="M11 26C13.7614 23.2386 18.2386 23.2386 21 26C23.7614 28.7614 23.7614 33.2386 21 36C18.2386 38.7614 13.7614 38.7614 11 36C8.23858 33.2386 8.23858 28.7614 11 26Z" fill="#232323"/>
<path d="M11 43.5C13.7614 40.7386 18.2386 40.7386 21 43.5C23.7614 46.2614 23.7614 50.7386 21 53.5C18.2386 56.2614 13.7614 56.2614 11 53.5C8.23858 50.7386 8.23858 46.2614 11 43.5Z" fill="#232323"/>
<path d="M11 60.5C13.7614 57.7386 18.2386 57.7386 21 60.5C23.7614 63.2614 23.7614 67.7386 21 70.5C18.2386 73.2614 13.7614 73.2614 11 70.5C8.23858 67.7386 8.23858 63.2614 11 60.5Z" fill="#232323"/>
<path d="M30.5 60.5C33.2614 57.7386 37.7386 57.7386 40.5 60.5C43.2614 63.2614 43.2614 67.7386 40.5 70.5C37.7386 73.2614 33.2614 73.2614 30.5 70.5C27.7386 67.7386 27.7386 63.2614 30.5 60.5Z" fill="#232323"/>
<path d="M30.5 43.5C33.2614 40.7386 37.7386 40.7386 40.5 43.5C43.2614 46.2614 43.2614 50.7386 40.5 53.5C37.7386 56.2614 33.2614 56.2614 30.5 53.5C27.7386 50.7386 27.7386 46.2614 30.5 43.5Z" fill="#232323"/>
<path d="M30.5 26C33.2614 23.2386 37.7386 23.2386 40.5 26C43.2614 28.7614 43.2614 33.2386 40.5 36C37.7386 38.7614 33.2614 38.7614 30.5 36C27.7386 33.2386 27.7386 28.7614 30.5 26Z" fill="#232323"/>
<path d="M30.5 8.5C33.2614 5.73858 37.7386 5.73858 40.5 8.5C43.2614 11.2614 43.2614 15.7386 40.5 18.5C37.7386 21.2614 33.2614 21.2614 30.5 18.5C27.7386 15.7386 27.7386 11.2614 30.5 8.5Z" fill="#232323"/>
<path d="M48.5 8.5C51.2614 5.73858 55.7386 5.73858 58.5 8.5C61.2614 11.2614 61.2614 15.7386 58.5 18.5C55.7386 21.2614 51.2614 21.2614 48.5 18.5C45.7386 15.7386 45.7386 11.2614 48.5 8.5Z" fill="#232323"/>
<path d="M48.5 26C51.2614 23.2386 55.7386 23.2386 58.5 26C61.2614 28.7614 61.2614 33.2386 58.5 36C55.7386 38.7614 51.2614 38.7614 48.5 36C45.7386 33.2386 45.7386 28.7614 48.5 26Z" fill="#232323"/>
<path d="M48.5 43.5C51.2614 40.7386 55.7386 40.7386 58.5 43.5C61.2614 46.2614 61.2614 50.7386 58.5 53.5C55.7386 56.2614 51.2614 56.2614 48.5 53.5C45.7386 50.7386 45.7386 46.2614 48.5 43.5Z" fill="#232323"/>
<path d="M48.5 60.5C51.2614 57.7386 55.7386 57.7386 58.5 60.5C61.2614 63.2614 61.2614 67.7386 58.5 70.5C55.7386 73.2614 51.2614 73.2614 48.5 70.5C45.7386 67.7386 45.7386 63.2614 48.5 60.5Z" fill="#232323"/>
<path d="M66.5 60.5C69.2614 57.7386 73.7386 57.7386 76.5 60.5C79.2614 63.2614 79.2614 67.7386 76.5 70.5C73.7386 73.2614 69.2614 73.2614 66.5 70.5C63.7386 67.7386 63.7386 63.2614 66.5 60.5Z" fill="#232323"/>
<path d="M66.5 43.5C69.2614 40.7386 73.7386 40.7386 76.5 43.5C79.2614 46.2614 79.2614 50.7386 76.5 53.5C73.7386 56.2614 69.2614 56.2614 66.5 53.5C63.7386 50.7386 63.7386 46.2614 66.5 43.5Z" fill="#232323"/>
<path d="M66.5 26C69.2614 23.2386 73.7386 23.2386 76.5 26C79.2614 28.7614 79.2614 33.2386 76.5 36C73.7386 38.7614 69.2614 38.7614 66.5 36C63.7386 33.2386 63.7386 28.7614 66.5 26Z" fill="#232323"/>
<path d="M66.5 8.5C69.2614 5.73858 73.7386 5.73858 76.5 8.5C79.2614 11.2614 79.2614 15.7386 76.5 18.5C73.7386 21.2614 69.2614 21.2614 66.5 18.5C63.7386 15.7386 63.7386 11.2614 66.5 8.5Z" fill="#232323"/>
<path d="M74 102.5C76.7614 99.7386 81.2386 99.7386 84 102.5C86.7614 105.261 86.7614 109.739 84 112.5C81.2386 115.261 76.7614 115.261 74 112.5C71.2386 109.739 71.2386 105.261 74 102.5Z" fill="#232323"/>
<path d="M74 119.5C76.7614 116.739 81.2386 116.739 84 119.5C86.7614 122.261 86.7614 126.739 84 129.5C81.2386 132.261 76.7614 132.261 74 129.5C71.2386 126.739 71.2386 122.261 74 119.5Z" fill="#232323"/>
<path d="M93.5 119.5C96.2614 116.739 100.739 116.739 103.5 119.5C106.261 122.261 106.261 126.739 103.5 129.5C100.739 132.261 96.2614 132.261 93.5 129.5C90.7386 126.739 90.7386 122.261 93.5 119.5Z" fill="#232323"/>
<path d="M93.5 102.5C96.2614 99.7386 100.739 99.7386 103.5 102.5C106.261 105.261 106.261 109.739 103.5 112.5C100.739 115.261 96.2614 115.261 93.5 112.5C90.7386 109.739 90.7386 105.261 93.5 102.5Z" fill="#232323"/>
<path d="M93.5 85C96.2614 82.2386 100.739 82.2386 103.5 85C106.261 87.7614 106.261 92.2386 103.5 95C100.739 97.7614 96.2614 97.7614 93.5 95C90.7386 92.2386 90.7386 87.7614 93.5 85Z" fill="#232323"/>
<path d="M111.5 85C114.261 82.2386 118.739 82.2386 121.5 85C124.261 87.7614 124.261 92.2386 121.5 95C118.739 97.7614 114.261 97.7614 111.5 95C108.739 92.2386 108.739 87.7614 111.5 85Z" fill="#232323"/>
<path d="M111.5 102.5C114.261 99.7386 118.739 99.7386 121.5 102.5C124.261 105.261 124.261 109.739 121.5 112.5C118.739 115.261 114.261 115.261 111.5 112.5C108.739 109.739 108.739 105.261 111.5 102.5Z" fill="#232323"/>
<path d="M111.5 119.5C114.261 116.739 118.739 116.739 121.5 119.5C124.261 122.261 124.261 126.739 121.5 129.5C118.739 132.261 114.261 132.261 111.5 129.5C108.739 126.739 108.739 122.261 111.5 119.5Z" fill="#232323"/>
<path d="M129.5 119.5C132.261 116.739 136.739 116.739 139.5 119.5C142.261 122.261 142.261 126.739 139.5 129.5C136.739 132.261 132.261 132.261 129.5 129.5C126.739 126.739 126.739 122.261 129.5 119.5Z" fill="#232323"/>
<path d="M129.5 102.5C132.261 99.7386 136.739 99.7386 139.5 102.5C142.261 105.261 142.261 109.739 139.5 112.5C136.739 115.261 132.261 115.261 129.5 112.5C126.739 109.739 126.739 105.261 129.5 102.5Z" fill="#232323"/>
<path d="M129.5 85C132.261 82.2386 136.739 82.2386 139.5 85C142.261 87.7614 142.261 92.2386 139.5 95C136.739 97.7614 132.261 97.7614 129.5 95C126.739 92.2386 126.739 87.7614 129.5 85Z" fill="#232323"/>
<path d="M129.5 67.5C132.261 64.7386 136.739 64.7386 139.5 67.5C142.261 70.2614 142.261 74.7386 139.5 77.5C136.739 80.2614 132.261 80.2614 129.5 77.5C126.739 74.7386 126.739 70.2614 129.5 67.5Z" fill="#232323"/>
<path d="M111.5 67.5C114.261 64.7386 118.739 64.7386 121.5 67.5C124.261 70.2614 124.261 74.7386 121.5 77.5C118.739 80.2614 114.261 80.2614 111.5 77.5C108.739 74.7386 108.739 70.2614 111.5 67.5Z" fill="#232323"/>
<path d="M147 67.5C149.761 64.7386 154.238 64.7386 157 67.5C159.761 70.2614 159.761 74.7386 157 77.5C154.238 80.2614 149.761 80.2614 147 77.5C144.238 74.7386 144.238 70.2614 147 67.5Z" fill="#232323"/>
<path d="M147 85C149.761 82.2386 154.238 82.2386 157 85C159.761 87.7614 159.761 92.2386 157 95C154.238 97.7614 149.761 97.7614 147 95C144.238 92.2386 144.238 87.7614 147 85Z" fill="#232323"/>
<path d="M147 102.5C149.761 99.7386 154.238 99.7386 157 102.5C159.761 105.261 159.761 109.739 157 112.5C154.238 115.261 149.761 115.261 147 112.5C144.238 109.739 144.238 105.261 147 102.5Z" fill="#232323"/>
<path d="M147 119.5C149.761 116.739 154.238 116.739 157 119.5C159.761 122.261 159.761 126.739 157 129.5C154.238 132.261 149.761 132.261 147 129.5C144.238 126.739 144.238 122.261 147 119.5Z" fill="#232323"/>
<path d="M166.5 119.5C169.261 116.739 173.738 116.739 176.5 119.5C179.261 122.261 179.261 126.739 176.5 129.5C173.738 132.261 169.261 132.261 166.5 129.5C163.738 126.739 163.738 122.261 166.5 119.5Z" fill="#232323"/>
<path d="M166.5 102.5C169.261 99.7386 173.738 99.7386 176.5 102.5C179.261 105.261 179.261 109.739 176.5 112.5C173.738 115.261 169.261 115.261 166.5 112.5C163.738 109.739 163.738 105.261 166.5 102.5Z" fill="#232323"/>
<path d="M166.5 85C169.261 82.2386 173.738 82.2386 176.5 85C179.261 87.7614 179.261 92.2386 176.5 95C173.738 97.7614 169.261 97.7614 166.5 95C163.738 92.2386 163.738 87.7614 166.5 85Z" fill="#232323"/>
<path d="M166.5 67.5C169.261 64.7386 173.738 64.7386 176.5 67.5C179.261 70.2614 179.261 74.7386 176.5 77.5C173.738 80.2614 169.261 80.2614 166.5 77.5C163.738 74.7386 163.738 70.2614 166.5 67.5Z" fill="#232323"/>
<path d="M184.5 67.5C187.261 64.7386 191.738 64.7386 194.5 67.5C197.261 70.2614 197.261 74.7386 194.5 77.5C191.738 80.2614 187.261 80.2614 184.5 77.5C181.738 74.7386 181.738 70.2614 184.5 67.5Z" fill="#232323"/>
<path d="M184.5 85C187.261 82.2386 191.738 82.2386 194.5 85C197.261 87.7614 197.261 92.2386 194.5 95C191.738 97.7614 187.261 97.7614 184.5 95C181.738 92.2386 181.738 87.7614 184.5 85Z" fill="#232323"/>
<path d="M184.5 102.5C187.261 99.7386 191.738 99.7386 194.5 102.5C197.261 105.261 197.261 109.739 194.5 112.5C191.738 115.261 187.261 115.261 184.5 112.5C181.738 109.739 181.738 105.261 184.5 102.5Z" fill="#232323"/>
<path d="M184.5 119.5C187.261 116.739 191.738 116.739 194.5 119.5C197.261 122.261 197.261 126.739 194.5 129.5C191.738 132.261 187.261 132.261 184.5 129.5C181.738 126.739 181.738 122.261 184.5 119.5Z" fill="#232323"/>
<path d="M202.5 119.5C205.261 116.739 209.738 116.739 212.5 119.5C215.261 122.261 215.261 126.739 212.5 129.5C209.738 132.261 205.261 132.261 202.5 129.5C199.738 126.739 199.738 122.261 202.5 119.5Z" fill="#232323"/>
<path d="M202.5 102.5C205.261 99.7386 209.738 99.7386 212.5 102.5C215.261 105.261 215.261 109.739 212.5 112.5C209.738 115.261 205.261 115.261 202.5 112.5C199.738 109.739 199.738 105.261 202.5 102.5Z" fill="#232323"/>
<path d="M202.5 85C205.261 82.2386 209.738 82.2386 212.5 85C215.261 87.7614 215.261 92.2386 212.5 95C209.738 97.7614 205.261 97.7614 202.5 95C199.738 92.2386 199.738 87.7614 202.5 85Z" fill="#232323"/>
<path d="M202.5 67.5C205.261 64.7386 209.738 64.7386 212.5 67.5C215.261 70.2614 215.261 74.7386 212.5 77.5C209.738 80.2614 205.261 80.2614 202.5 77.5C199.738 74.7386 199.738 70.2614 202.5 67.5Z" fill="#232323"/>
<path d="M147 137.5C149.761 134.739 154.238 134.739 157 137.5C159.761 140.261 159.761 144.739 157 147.5C154.238 150.261 149.761 150.261 147 147.5C144.238 144.739 144.238 140.261 147 137.5Z" fill="#232323"/>
<path d="M147 155C149.761 152.239 154.238 152.239 157 155C159.761 157.761 159.761 162.239 157 165C154.238 167.761 149.761 167.761 147 165C144.238 162.239 144.238 157.761 147 155Z" fill="#232323"/>
<path d="M147 172.5C149.761 169.739 154.238 169.739 157 172.5C159.761 175.261 159.761 179.739 157 182.5C154.238 185.261 149.761 185.261 147 182.5C144.238 179.739 144.238 175.261 147 172.5Z" fill="#232323"/>
<path d="M147 189.5C149.761 186.739 154.238 186.739 157 189.5C159.761 192.261 159.761 196.739 157 199.5C154.238 202.261 149.761 202.261 147 199.5C144.238 196.739 144.238 192.261 147 189.5Z" fill="#232323"/>
<path d="M166.5 189.5C169.261 186.739 173.738 186.739 176.5 189.5C179.261 192.261 179.261 196.739 176.5 199.5C173.738 202.261 169.261 202.261 166.5 199.5C163.738 196.739 163.738 192.261 166.5 189.5Z" fill="#232323"/>
<path d="M166.5 172.5C169.261 169.739 173.738 169.739 176.5 172.5C179.261 175.261 179.261 179.739 176.5 182.5C173.738 185.261 169.261 185.261 166.5 182.5C163.738 179.739 163.738 175.261 166.5 172.5Z" fill="#232323"/>
<path d="M166.5 155C169.261 152.239 173.738 152.239 176.5 155C179.261 157.761 179.261 162.239 176.5 165C173.738 167.761 169.261 167.761 166.5 165C163.738 162.239 163.738 157.761 166.5 155Z" fill="#232323"/>
<path d="M166.5 137.5C169.261 134.739 173.738 134.739 176.5 137.5C179.261 140.261 179.261 144.739 176.5 147.5C173.738 150.261 169.261 150.261 166.5 147.5C163.738 144.739 163.738 140.261 166.5 137.5Z" fill="#232323"/>
<path d="M184.5 137.5C187.261 134.739 191.738 134.739 194.5 137.5C197.261 140.261 197.261 144.739 194.5 147.5C191.738 150.261 187.261 150.261 184.5 147.5C181.738 144.739 181.738 140.261 184.5 137.5Z" fill="#232323"/>
<path d="M184.5 155C187.261 152.239 191.738 152.239 194.5 155C197.261 157.761 197.261 162.239 194.5 165C191.738 167.761 187.261 167.761 184.5 165C181.738 162.239 181.738 157.761 184.5 155Z" fill="#232323"/>
<path d="M184.5 172.5C187.261 169.739 191.738 169.739 194.5 172.5C197.261 175.261 197.261 179.739 194.5 182.5C191.738 185.261 187.261 185.261 184.5 182.5C181.738 179.739 181.738 175.261 184.5 172.5Z" fill="#232323"/>
<path d="M184.5 189.5C187.261 186.739 191.738 186.739 194.5 189.5C197.261 192.261 197.261 196.739 194.5 199.5C191.738 202.261 187.261 202.261 184.5 199.5C181.738 196.739 181.738 192.261 184.5 189.5Z" fill="#232323"/>
<path d="M202.5 189.5C205.261 186.739 209.738 186.739 212.5 189.5C215.261 192.261 215.261 196.739 212.5 199.5C209.738 202.261 205.261 202.261 202.5 199.5C199.738 196.739 199.738 192.261 202.5 189.5Z" fill="#232323"/>
<path d="M202.5 172.5C205.261 169.739 209.738 169.739 212.5 172.5C215.261 175.261 215.261 179.739 212.5 182.5C209.738 185.261 205.261 185.261 202.5 182.5C199.738 179.739 199.738 175.261 202.5 172.5Z" fill="#232323"/>
<path d="M202.5 155C205.261 152.239 209.738 152.239 212.5 155C215.261 157.761 215.261 162.239 212.5 165C209.738 167.761 205.261 167.761 202.5 165C199.738 162.239 199.738 157.761 202.5 155Z" fill="#232323"/>
<path d="M202.5 137.5C205.261 134.739 209.738 134.739 212.5 137.5C215.261 140.261 215.261 144.739 212.5 147.5C209.738 150.261 205.261 150.261 202.5 147.5C199.738 144.739 199.738 140.261 202.5 137.5Z" fill="#232323"/>
<path d="M203 205.501C205.761 202.739 210.238 202.739 213 205.501C215.761 208.262 215.761 212.739 213 215.501C210.238 218.262 205.761 218.262 203 215.501C200.238 212.739 200.238 208.262 203 205.501Z" fill="#232323"/>
<path d="M203 223.001C205.761 220.239 210.238 220.239 213 223.001C215.761 225.762 215.761 230.239 213 233.001C210.238 235.762 205.761 235.762 203 233.001C200.238 230.239 200.238 225.762 203 223.001Z" fill="#232323"/>
<path d="M203 240.501C205.761 237.739 210.238 237.739 213 240.501C215.761 243.262 215.761 247.739 213 250.501C210.238 253.262 205.761 253.262 203 250.501C200.238 247.739 200.238 243.262 203 240.501Z" fill="#232323"/>
<path d="M203 257.501C205.761 254.739 210.238 254.739 213 257.501C215.761 260.262 215.761 264.739 213 267.501C210.238 270.262 205.761 270.262 203 267.501C200.238 264.739 200.238 260.262 203 257.501Z" fill="#232323"/>
<path d="M222.5 257.501C225.261 254.739 229.738 254.739 232.5 257.501C235.261 260.262 235.261 264.739 232.5 267.501C229.738 270.262 225.261 270.262 222.5 267.501C219.738 264.739 219.738 260.262 222.5 257.501Z" fill="#232323"/>
<path d="M222.5 240.501C225.261 237.739 229.738 237.739 232.5 240.501C235.261 243.262 235.261 247.739 232.5 250.501C229.738 253.262 225.261 253.262 222.5 250.501C219.738 247.739 219.738 243.262 222.5 240.501Z" fill="#232323"/>
<path d="M222.5 223.001C225.261 220.239 229.738 220.239 232.5 223.001C235.261 225.762 235.261 230.239 232.5 233.001C229.738 235.762 225.261 235.762 222.5 233.001C219.738 230.239 219.738 225.762 222.5 223.001Z" fill="#232323"/>
<path d="M222.5 205.501C225.261 202.739 229.738 202.739 232.5 205.501C235.261 208.262 235.261 212.739 232.5 215.501C229.738 218.262 225.261 218.262 222.5 215.501C219.738 212.739 219.738 208.262 222.5 205.501Z" fill="#232323"/>
<path d="M240.5 205.501C243.261 202.739 247.738 202.739 250.5 205.501C253.261 208.262 253.261 212.739 250.5 215.501C247.738 218.262 243.261 218.262 240.5 215.501C237.738 212.739 237.738 208.262 240.5 205.501Z" fill="#232323"/>
<path d="M240.5 223.001C243.261 220.239 247.738 220.239 250.5 223.001C253.261 225.762 253.261 230.239 250.5 233.001C247.738 235.762 243.261 235.762 240.5 233.001C237.738 230.239 237.738 225.762 240.5 223.001Z" fill="#232323"/>
<path d="M240.5 240.501C243.261 237.739 247.738 237.739 250.5 240.501C253.261 243.262 253.261 247.739 250.5 250.501C247.738 253.262 243.261 253.262 240.5 250.501C237.738 247.739 237.738 243.262 240.5 240.501Z" fill="#232323"/>
<path d="M240.5 257.501C243.261 254.739 247.738 254.739 250.5 257.501C253.261 260.262 253.261 264.739 250.5 267.501C247.738 270.262 243.261 270.262 240.5 267.501C237.738 264.739 237.738 260.262 240.5 257.501Z" fill="#232323"/>
<path d="M258.5 257.501C261.261 254.739 265.738 254.739 268.5 257.501C271.261 260.262 271.261 264.739 268.5 267.501C265.738 270.262 261.261 270.262 258.5 267.501C255.738 264.739 255.738 260.262 258.5 257.501Z" fill="#232323"/>
<path d="M258.5 240.501C261.261 237.739 265.738 237.739 268.5 240.501C271.261 243.262 271.261 247.739 268.5 250.501C265.738 253.262 261.261 253.262 258.5 250.501C255.738 247.739 255.738 243.262 258.5 240.501Z" fill="#232323"/>
<path d="M258.5 223.001C261.261 220.239 265.738 220.239 268.5 223.001C271.261 225.762 271.261 230.239 268.5 233.001C265.738 235.762 261.261 235.762 258.5 233.001C255.738 230.239 255.738 225.762 258.5 223.001Z" fill="#232323"/>
<path d="M258.5 205.501C261.261 202.739 265.738 202.739 268.5 205.501C271.261 208.262 271.261 212.739 268.5 215.501C265.738 218.262 261.261 218.262 258.5 215.501C255.738 212.739 255.738 208.262 258.5 205.501Z" fill="#232323"/>
<path d="M203 275.501C205.761 272.74 210.239 272.74 213 275.501C215.761 278.262 215.761 282.74 213 285.501C210.239 288.262 205.761 288.262 203 285.501C200.239 282.74 200.239 278.262 203 275.501Z" fill="#232323"/>
<path d="M203 293.001C205.761 290.24 210.239 290.24 213 293.001C215.761 295.762 215.761 300.24 213 303.001C210.239 305.762 205.761 305.762 203 303.001C200.239 300.24 200.239 295.762 203 293.001Z" fill="#232323"/>
<path d="M203 310.501C205.761 307.74 210.239 307.74 213 310.501C215.761 313.262 215.761 317.74 213 320.501C210.239 323.262 205.761 323.262 203 320.501C200.239 317.74 200.239 313.262 203 310.501Z" fill="#232323"/>
<path d="M203 327.501C205.761 324.74 210.239 324.74 213 327.501C215.761 330.262 215.761 334.74 213 337.501C210.239 340.262 205.761 340.262 203 337.501C200.239 334.74 200.239 330.262 203 327.501Z" fill="#232323"/>
<path d="M222.5 327.501C225.261 324.74 229.739 324.74 232.5 327.501C235.261 330.262 235.261 334.74 232.5 337.501C229.739 340.262 225.261 340.262 222.5 337.501C219.739 334.74 219.739 330.262 222.5 327.501Z" fill="#232323"/>
<path d="M222.5 310.501C225.261 307.74 229.739 307.74 232.5 310.501C235.261 313.262 235.261 317.74 232.5 320.501C229.739 323.262 225.261 323.262 222.5 320.501C219.739 317.74 219.739 313.262 222.5 310.501Z" fill="#232323"/>
<path d="M222.5 293.001C225.261 290.24 229.739 290.24 232.5 293.001C235.261 295.762 235.261 300.24 232.5 303.001C229.739 305.762 225.261 305.762 222.5 303.001C219.739 300.24 219.739 295.762 222.5 293.001Z" fill="#232323"/>
<path d="M222.5 275.501C225.261 272.74 229.739 272.74 232.5 275.501C235.261 278.262 235.261 282.74 232.5 285.501C229.739 288.262 225.261 288.262 222.5 285.501C219.739 282.74 219.739 278.262 222.5 275.501Z" fill="#232323"/>
<path d="M240.5 275.501C243.261 272.74 247.739 272.74 250.5 275.501C253.261 278.262 253.261 282.74 250.5 285.501C247.739 288.262 243.261 288.262 240.5 285.501C237.739 282.74 237.739 278.262 240.5 275.501Z" fill="#232323"/>
<path d="M240.5 293.001C243.261 290.24 247.739 290.24 250.5 293.001C253.261 295.762 253.261 300.24 250.5 303.001C247.739 305.762 243.261 305.762 240.5 303.001C237.739 300.24 237.739 295.762 240.5 293.001Z" fill="#232323"/>
<path d="M240.5 310.501C243.261 307.74 247.739 307.74 250.5 310.501C253.261 313.262 253.261 317.74 250.5 320.501C247.739 323.262 243.261 323.262 240.5 320.501C237.739 317.74 237.739 313.262 240.5 310.501Z" fill="#232323"/>
<path d="M240.5 327.501C243.261 324.74 247.739 324.74 250.5 327.501C253.261 330.262 253.261 334.74 250.5 337.501C247.739 340.262 243.261 340.262 240.5 337.501C237.739 334.74 237.739 330.262 240.5 327.501Z" fill="#232323"/>
<path d="M258.5 327.501C261.261 324.74 265.739 324.74 268.5 327.501C271.261 330.262 271.261 334.74 268.5 337.501C265.739 340.262 261.261 340.262 258.5 337.501C255.739 334.74 255.739 330.262 258.5 327.501Z" fill="#232323"/>
<path d="M258.5 310.501C261.261 307.74 265.739 307.74 268.5 310.501C271.261 313.262 271.261 317.74 268.5 320.501C265.739 323.262 261.261 323.262 258.5 320.501C255.739 317.74 255.739 313.262 258.5 310.501Z" fill="#232323"/>
<path d="M258.5 293.001C261.261 290.24 265.739 290.24 268.5 293.001C271.261 295.762 271.261 300.24 268.5 303.001C265.739 305.762 261.261 305.762 258.5 303.001C255.739 300.24 255.739 295.762 258.5 293.001Z" fill="#232323"/>
<path d="M258.5 275.501C261.261 272.74 265.739 272.74 268.5 275.501C271.261 278.262 271.261 282.74 268.5 285.501C265.739 288.262 261.261 288.262 258.5 285.501C255.739 282.74 255.739 278.262 258.5 275.501Z" fill="#232323"/>
<path d="M203 343.501C205.761 340.739 210.239 340.739 213 343.501C215.761 346.262 215.761 350.739 213 353.501C210.239 356.262 205.761 356.262 203 353.501C200.239 350.739 200.239 346.262 203 343.501Z" fill="#232323"/>
<path d="M203 361.001C205.761 358.239 210.239 358.239 213 361.001C215.761 363.762 215.761 368.239 213 371.001C210.239 373.762 205.761 373.762 203 371.001C200.239 368.239 200.239 363.762 203 361.001Z" fill="#232323"/>
<path d="M203 378.501C205.761 375.739 210.239 375.739 213 378.501C215.761 381.262 215.761 385.739 213 388.501C210.239 391.262 205.761 391.262 203 388.501C200.239 385.739 200.239 381.262 203 378.501Z" fill="#232323"/>
<path d="M203 395.501C205.761 392.739 210.239 392.739 213 395.501C215.761 398.262 215.761 402.739 213 405.501C210.239 408.262 205.761 408.262 203 405.501C200.239 402.739 200.239 398.262 203 395.501Z" fill="#232323"/>
<path d="M222.5 395.501C225.261 392.739 229.739 392.739 232.5 395.501C235.261 398.262 235.261 402.739 232.5 405.501C229.739 408.262 225.261 408.262 222.5 405.501C219.739 402.739 219.739 398.262 222.5 395.501Z" fill="#232323"/>
<path d="M222.5 378.501C225.261 375.739 229.739 375.739 232.5 378.501C235.261 381.262 235.261 385.739 232.5 388.501C229.739 391.262 225.261 391.262 222.5 388.501C219.739 385.739 219.739 381.262 222.5 378.501Z" fill="#232323"/>
<path d="M222.5 361.001C225.261 358.239 229.739 358.239 232.5 361.001C235.261 363.762 235.261 368.239 232.5 371.001C229.739 373.762 225.261 373.762 222.5 371.001C219.739 368.239 219.739 363.762 222.5 361.001Z" fill="#232323"/>
<path d="M222.5 343.501C225.261 340.739 229.739 340.739 232.5 343.501C235.261 346.262 235.261 350.739 232.5 353.501C229.739 356.262 225.261 356.262 222.5 353.501C219.739 350.739 219.739 346.262 222.5 343.501Z" fill="#232323"/>
<path d="M240.5 343.501C243.261 340.739 247.739 340.739 250.5 343.501C253.261 346.262 253.261 350.739 250.5 353.501C247.739 356.262 243.261 356.262 240.5 353.501C237.739 350.739 237.739 346.262 240.5 343.501Z" fill="#232323"/>
<path d="M240.5 361.001C243.261 358.239 247.739 358.239 250.5 361.001C253.261 363.762 253.261 368.239 250.5 371.001C247.739 373.762 243.261 373.762 240.5 371.001C237.739 368.239 237.739 363.762 240.5 361.001Z" fill="#232323"/>
<path d="M240.5 378.501C243.261 375.739 247.739 375.739 250.5 378.501C253.261 381.262 253.261 385.739 250.5 388.501C247.739 391.262 243.261 391.262 240.5 388.501C237.739 385.739 237.739 381.262 240.5 378.501Z" fill="#232323"/>
<path d="M240.5 395.501C243.261 392.739 247.739 392.739 250.5 395.501C253.261 398.262 253.261 402.739 250.5 405.501C247.739 408.262 243.261 408.262 240.5 405.501C237.739 402.739 237.739 398.262 240.5 395.501Z" fill="#232323"/>
<path d="M258.5 395.501C261.261 392.739 265.739 392.739 268.5 395.501C271.261 398.262 271.261 402.739 268.5 405.501C265.739 408.262 261.261 408.262 258.5 405.501C255.739 402.739 255.739 398.262 258.5 395.501Z" fill="#232323"/>
<path d="M258.5 378.501C261.261 375.739 265.739 375.739 268.5 378.501C271.261 381.262 271.261 385.739 268.5 388.501C265.739 391.262 261.261 391.262 258.5 388.501C255.739 385.739 255.739 381.262 258.5 378.501Z" fill="#232323"/>
<path d="M258.5 361.001C261.261 358.239 265.739 358.239 268.5 361.001C271.261 363.762 271.261 368.239 268.5 371.001C265.739 373.762 261.261 373.762 258.5 371.001C255.739 368.239 255.739 363.762 258.5 361.001Z" fill="#232323"/>
<path d="M258.5 343.501C261.261 340.739 265.739 340.739 268.5 343.501C271.261 346.262 271.261 350.739 268.5 353.501C265.739 356.262 261.261 356.262 258.5 353.501C255.739 350.739 255.739 346.262 258.5 343.501Z" fill="#232323"/>
<path d="M276 343.501C278.761 340.739 283.239 340.739 286 343.501C288.761 346.262 288.761 350.739 286 353.501C283.239 356.262 278.761 356.262 276 353.501C273.239 350.739 273.239 346.262 276 343.501Z" fill="#232323"/>
<path d="M276 361.001C278.761 358.239 283.239 358.239 286 361.001C288.761 363.762 288.761 368.239 286 371.001C283.239 373.762 278.761 373.762 276 371.001C273.239 368.239 273.239 363.762 276 361.001Z" fill="#232323"/>
<path d="M276 378.501C278.761 375.739 283.239 375.739 286 378.501C288.761 381.262 288.761 385.739 286 388.501C283.239 391.262 278.761 391.262 276 388.501C273.239 385.739 273.239 381.262 276 378.501Z" fill="#232323"/>
<path d="M276 395.501C278.761 392.739 283.239 392.739 286 395.501C288.761 398.262 288.761 402.739 286 405.501C283.239 408.262 278.761 408.262 276 405.501C273.239 402.739 273.239 398.262 276 395.501Z" fill="#232323"/>
<path d="M295.5 395.501C298.261 392.739 302.739 392.739 305.5 395.501C308.261 398.262 308.261 402.739 305.5 405.501C302.739 408.262 298.261 408.262 295.5 405.501C292.739 402.739 292.739 398.262 295.5 395.501Z" fill="#232323"/>
<path d="M295.5 378.501C298.261 375.739 302.739 375.739 305.5 378.501C308.261 381.262 308.261 385.739 305.5 388.501C302.739 391.262 298.261 391.262 295.5 388.501C292.739 385.739 292.739 381.262 295.5 378.501Z" fill="#232323"/>
<path d="M295.5 361.001C298.261 358.239 302.739 358.239 305.5 361.001C308.261 363.762 308.261 368.239 305.5 371.001C302.739 373.762 298.261 373.762 295.5 371.001C292.739 368.239 292.739 363.762 295.5 361.001Z" fill="#232323"/>
<path d="M295.5 343.501C298.261 340.739 302.739 340.739 305.5 343.501C308.261 346.262 308.261 350.739 305.5 353.501C302.739 356.262 298.261 356.262 295.5 353.501C292.739 350.739 292.739 346.262 295.5 343.501Z" fill="#232323"/>
<path d="M313.5 343.501C316.261 340.739 320.739 340.739 323.5 343.501C326.261 346.262 326.261 350.739 323.5 353.501C320.739 356.262 316.261 356.262 313.5 353.501C310.739 350.739 310.739 346.262 313.5 343.501Z" fill="#232323"/>
<path d="M313.5 361.001C316.261 358.239 320.739 358.239 323.5 361.001C326.261 363.762 326.261 368.239 323.5 371.001C320.739 373.762 316.261 373.762 313.5 371.001C310.739 368.239 310.739 363.762 313.5 361.001Z" fill="#232323"/>
<path d="M313.5 378.501C316.261 375.739 320.739 375.739 323.5 378.501C326.261 381.262 326.261 385.739 323.5 388.501C320.739 391.262 316.261 391.262 313.5 388.501C310.739 385.739 310.739 381.262 313.5 378.501Z" fill="#232323"/>
<path d="M313.5 395.501C316.261 392.739 320.739 392.739 323.5 395.501C326.261 398.262 326.261 402.739 323.5 405.501C320.739 408.262 316.261 408.262 313.5 405.501C310.739 402.739 310.739 398.262 313.5 395.501Z" fill="#232323"/>
<path d="M331.5 395.501C334.261 392.739 338.739 392.739 341.5 395.501C344.261 398.262 344.261 402.739 341.5 405.501C338.739 408.262 334.261 408.262 331.5 405.501C328.739 402.739 328.739 398.262 331.5 395.501Z" fill="#232323"/>
<path d="M331.5 378.501C334.261 375.739 338.739 375.739 341.5 378.501C344.261 381.262 344.261 385.739 341.5 388.501C338.739 391.262 334.261 391.262 331.5 388.501C328.739 385.739 328.739 381.262 331.5 378.501Z" fill="#232323"/>
<path d="M331.5 361.001C334.261 358.239 338.739 358.239 341.5 361.001C344.261 363.762 344.261 368.239 341.5 371.001C338.739 373.762 334.261 373.762 331.5 371.001C328.739 368.239 328.739 363.762 331.5 361.001Z" fill="#232323"/>
<path d="M331.5 343.501C334.261 340.739 338.739 340.739 341.5 343.501C344.261 346.262 344.261 350.739 341.5 353.501C338.739 356.262 334.261 356.262 331.5 353.501C328.739 350.739 328.739 346.262 331.5 343.501Z" fill="#232323"/>
<path d="M348 343.501C350.761 340.739 355.239 340.739 358 343.501C360.761 346.262 360.761 350.739 358 353.501C355.239 356.262 350.761 356.262 348 353.501C345.239 350.739 345.239 346.262 348 343.501Z" fill="#232323"/>
<path d="M348 361.001C350.761 358.239 355.239 358.239 358 361.001C360.761 363.762 360.761 368.239 358 371.001C355.239 373.762 350.761 373.762 348 371.001C345.239 368.239 345.239 363.762 348 361.001Z" fill="#232323"/>
<path d="M348 378.501C350.761 375.739 355.239 375.739 358 378.501C360.761 381.262 360.761 385.739 358 388.501C355.239 391.262 350.761 391.262 348 388.501C345.239 385.739 345.239 381.262 348 378.501Z" fill="#232323"/>
<path d="M348 395.501C350.761 392.739 355.239 392.739 358 395.501C360.761 398.262 360.761 402.739 358 405.501C355.239 408.262 350.761 408.262 348 405.501C345.239 402.739 345.239 398.262 348 395.501Z" fill="#232323"/>
<path d="M367.5 395.501C370.261 392.739 374.739 392.739 377.5 395.501C380.261 398.262 380.261 402.739 377.5 405.501C374.739 408.262 370.261 408.262 367.5 405.501C364.739 402.739 364.739 398.262 367.5 395.501Z" fill="#232323"/>
<path d="M367.5 378.501C370.261 375.739 374.739 375.739 377.5 378.501C380.261 381.262 380.261 385.739 377.5 388.501C374.739 391.262 370.261 391.262 367.5 388.501C364.739 385.739 364.739 381.262 367.5 378.501Z" fill="#232323"/>
<path d="M367.5 361.001C370.261 358.239 374.739 358.239 377.5 361.001C380.261 363.762 380.261 368.239 377.5 371.001C374.739 373.762 370.261 373.762 367.5 371.001C364.739 368.239 364.739 363.762 367.5 361.001Z" fill="#232323"/>
<path d="M367.5 343.501C370.261 340.739 374.739 340.739 377.5 343.501C380.261 346.262 380.261 350.739 377.5 353.501C374.739 356.262 370.261 356.262 367.5 353.501C364.739 350.739 364.739 346.262 367.5 343.501Z" fill="#232323"/>
<path d="M385.5 343.501C388.261 340.739 392.739 340.739 395.5 343.501C398.261 346.262 398.261 350.739 395.5 353.501C392.739 356.262 388.261 356.262 385.5 353.501C382.739 350.739 382.739 346.262 385.5 343.501Z" fill="#232323"/>
<path d="M385.5 361.001C388.261 358.239 392.739 358.239 395.5 361.001C398.261 363.762 398.261 368.239 395.5 371.001C392.739 373.762 388.261 373.762 385.5 371.001C382.739 368.239 382.739 363.762 385.5 361.001Z" fill="#232323"/>
<path d="M385.5 378.501C388.261 375.739 392.739 375.739 395.5 378.501C398.261 381.262 398.261 385.739 395.5 388.501C392.739 391.262 388.261 391.262 385.5 388.501C382.739 385.739 382.739 381.262 385.5 378.501Z" fill="#232323"/>
<path d="M403.5 361.001C406.261 358.239 410.739 358.239 413.5 361.001C416.261 363.762 416.261 368.239 413.5 371.001C410.739 373.762 406.261 373.762 403.5 371.001C400.739 368.239 400.739 363.762 403.5 361.001Z" fill="#232323"/>
<path d="M403.5 343.501C406.261 340.739 410.739 340.739 413.5 343.501C416.261 346.262 416.261 350.739 413.5 353.501C410.739 356.262 406.261 356.262 403.5 353.501C400.739 350.739 400.739 346.262 403.5 343.501Z" fill="#232323"/>
<path d="M276 275.501C278.761 272.74 283.239 272.74 286 275.501C288.761 278.262 288.761 282.74 286 285.501C283.239 288.262 278.761 288.262 276 285.501C273.239 282.74 273.239 278.262 276 275.501Z" fill="#232323"/>
<path d="M276 293.001C278.761 290.24 283.239 290.24 286 293.001C288.761 295.762 288.761 300.24 286 303.001C283.239 305.762 278.761 305.762 276 303.001C273.239 300.24 273.239 295.762 276 293.001Z" fill="#232323"/>
<path d="M276 310.501C278.761 307.74 283.239 307.74 286 310.501C288.761 313.262 288.761 317.74 286 320.501C283.239 323.262 278.761 323.262 276 320.501C273.239 317.74 273.239 313.262 276 310.501Z" fill="#232323"/>
<path d="M276 327.501C278.761 324.74 283.239 324.74 286 327.501C288.761 330.262 288.761 334.74 286 337.501C283.239 340.262 278.761 340.262 276 337.501C273.239 334.74 273.239 330.262 276 327.501Z" fill="#232323"/>
<path d="M295.5 327.501C298.261 324.74 302.739 324.74 305.5 327.501C308.261 330.262 308.261 334.74 305.5 337.501C302.739 340.262 298.261 340.262 295.5 337.501C292.739 334.74 292.739 330.262 295.5 327.501Z" fill="#232323"/>
<path d="M295.5 310.501C298.261 307.74 302.739 307.74 305.5 310.501C308.261 313.262 308.261 317.74 305.5 320.501C302.739 323.262 298.261 323.262 295.5 320.501C292.739 317.74 292.739 313.262 295.5 310.501Z" fill="#232323"/>
<path d="M295.5 293.001C298.261 290.24 302.739 290.24 305.5 293.001C308.261 295.762 308.261 300.24 305.5 303.001C302.739 305.762 298.261 305.762 295.5 303.001C292.739 300.24 292.739 295.762 295.5 293.001Z" fill="#232323"/>
<path d="M295.5 275.501C298.261 272.74 302.739 272.74 305.5 275.501C308.261 278.262 308.261 282.74 305.5 285.501C302.739 288.262 298.261 288.262 295.5 285.501C292.739 282.74 292.739 278.262 295.5 275.501Z" fill="#232323"/>
<path d="M313.5 275.501C316.261 272.74 320.739 272.74 323.5 275.501C326.261 278.262 326.261 282.74 323.5 285.501C320.739 288.262 316.261 288.262 313.5 285.501C310.739 282.74 310.739 278.262 313.5 275.501Z" fill="#232323"/>
<path d="M313.5 293.001C316.261 290.24 320.739 290.24 323.5 293.001C326.261 295.762 326.261 300.24 323.5 303.001C320.739 305.762 316.261 305.762 313.5 303.001C310.739 300.24 310.739 295.762 313.5 293.001Z" fill="#232323"/>
<path d="M313.5 310.501C316.261 307.74 320.739 307.74 323.5 310.501C326.261 313.262 326.261 317.74 323.5 320.501C320.739 323.262 316.261 323.262 313.5 320.501C310.739 317.74 310.739 313.262 313.5 310.501Z" fill="#232323"/>
<path d="M313.5 327.501C316.261 324.74 320.739 324.74 323.5 327.501C326.261 330.262 326.261 334.74 323.5 337.501C320.739 340.262 316.261 340.262 313.5 337.501C310.739 334.74 310.739 330.262 313.5 327.501Z" fill="#232323"/>
<path d="M331.5 327.501C334.261 324.74 338.739 324.74 341.5 327.501C344.261 330.262 344.261 334.74 341.5 337.501C338.739 340.262 334.261 340.262 331.5 337.501C328.739 334.74 328.739 330.262 331.5 327.501Z" fill="#232323"/>
<path d="M331.5 310.501C334.261 307.74 338.739 307.74 341.5 310.501C344.261 313.262 344.261 317.74 341.5 320.501C338.739 323.262 334.261 323.262 331.5 320.501C328.739 317.74 328.739 313.262 331.5 310.501Z" fill="#232323"/>
<path d="M331.5 293.001C334.261 290.24 338.739 290.24 341.5 293.001C344.261 295.762 344.261 300.24 341.5 303.001C338.739 305.762 334.261 305.762 331.5 303.001C328.739 300.24 328.739 295.762 331.5 293.001Z" fill="#232323"/>
<path d="M331.5 275.501C334.261 272.74 338.739 272.74 341.5 275.501C344.261 278.262 344.261 282.74 341.5 285.501C338.739 288.262 334.261 288.262 331.5 285.501C328.739 282.74 328.739 278.262 331.5 275.501Z" fill="#232323"/>
<path d="M276 205.501C278.761 202.74 283.239 202.74 286 205.501C288.761 208.263 288.761 212.74 286 215.501C283.239 218.263 278.761 218.263 276 215.501C273.239 212.74 273.239 208.263 276 205.501Z" fill="#232323"/>
<path d="M276 223.001C278.761 220.24 283.239 220.24 286 223.001C288.761 225.763 288.761 230.24 286 233.001C283.239 235.763 278.761 235.763 276 233.001C273.239 230.24 273.239 225.763 276 223.001Z" fill="#232323"/>
<path d="M276 240.501C278.761 237.74 283.239 237.74 286 240.501C288.761 243.263 288.761 247.74 286 250.501C283.239 253.263 278.761 253.263 276 250.501C273.239 247.74 273.239 243.263 276 240.501Z" fill="#232323"/>
<path d="M276 257.501C278.761 254.74 283.239 254.74 286 257.501C288.761 260.263 288.761 264.74 286 267.501C283.239 270.263 278.761 270.263 276 267.501C273.239 264.74 273.239 260.263 276 257.501Z" fill="#232323"/>
<path d="M295.5 257.501C298.261 254.74 302.739 254.74 305.5 257.501C308.261 260.263 308.261 264.74 305.5 267.501C302.739 270.263 298.261 270.263 295.5 267.501C292.739 264.74 292.739 260.263 295.5 257.501Z" fill="#232323"/>
<path d="M295.5 240.501C298.261 237.74 302.739 237.74 305.5 240.501C308.261 243.263 308.261 247.74 305.5 250.501C302.739 253.263 298.261 253.263 295.5 250.501C292.739 247.74 292.739 243.263 295.5 240.501Z" fill="#232323"/>
<path d="M295.5 223.001C298.261 220.24 302.739 220.24 305.5 223.001C308.261 225.763 308.261 230.24 305.5 233.001C302.739 235.763 298.261 235.763 295.5 233.001C292.739 230.24 292.739 225.763 295.5 223.001Z" fill="#232323"/>
<path d="M295.5 205.501C298.261 202.74 302.739 202.74 305.5 205.501C308.261 208.263 308.261 212.74 305.5 215.501C302.739 218.263 298.261 218.263 295.5 215.501C292.739 212.74 292.739 208.263 295.5 205.501Z" fill="#232323"/>
<path d="M313.5 205.501C316.261 202.74 320.739 202.74 323.5 205.501C326.261 208.263 326.261 212.74 323.5 215.501C320.739 218.263 316.261 218.263 313.5 215.501C310.739 212.74 310.739 208.263 313.5 205.501Z" fill="#232323"/>
<path d="M313.5 223.001C316.261 220.24 320.739 220.24 323.5 223.001C326.261 225.763 326.261 230.24 323.5 233.001C320.739 235.763 316.261 235.763 313.5 233.001C310.739 230.24 310.739 225.763 313.5 223.001Z" fill="#232323"/>
<path d="M313.5 240.501C316.261 237.74 320.739 237.74 323.5 240.501C326.261 243.263 326.261 247.74 323.5 250.501C320.739 253.263 316.261 253.263 313.5 250.501C310.739 247.74 310.739 243.263 313.5 240.501Z" fill="#232323"/>
<path d="M313.5 257.501C316.261 254.74 320.739 254.74 323.5 257.501C326.261 260.263 326.261 264.74 323.5 267.501C320.739 270.263 316.261 270.263 313.5 267.501C310.739 264.74 310.739 260.263 313.5 257.501Z" fill="#232323"/>
<path d="M331.5 257.501C334.261 254.74 338.739 254.74 341.5 257.501C344.261 260.263 344.261 264.74 341.5 267.501C338.739 270.263 334.261 270.263 331.5 267.501C328.739 264.74 328.739 260.263 331.5 257.501Z" fill="#232323"/>
<path d="M331.5 240.501C334.261 237.74 338.739 237.74 341.5 240.501C344.261 243.263 344.261 247.74 341.5 250.501C338.739 253.263 334.261 253.263 331.5 250.501C328.739 247.74 328.739 243.263 331.5 240.501Z" fill="#232323"/>
<path d="M331.5 223.001C334.261 220.24 338.739 220.24 341.5 223.001C344.261 225.763 344.261 230.24 341.5 233.001C338.739 235.763 334.261 235.763 331.5 233.001C328.739 230.24 328.739 225.763 331.5 223.001Z" fill="#232323"/>
<path d="M331.5 205.501C334.261 202.74 338.739 202.74 341.5 205.501C344.261 208.263 344.261 212.74 341.5 215.501C338.739 218.263 334.261 218.263 331.5 215.501C328.739 212.74 328.739 208.263 331.5 205.501Z" fill="#232323"/>
<path d="M348 205.501C350.761 202.74 355.239 202.74 358 205.501C360.761 208.263 360.761 212.74 358 215.501C355.239 218.263 350.761 218.263 348 215.501C345.239 212.74 345.239 208.263 348 205.501Z" fill="#232323"/>
<path d="M348 223.001C350.761 220.24 355.239 220.24 358 223.001C360.761 225.763 360.761 230.24 358 233.001C355.239 235.763 350.761 235.763 348 233.001C345.239 230.24 345.239 225.763 348 223.001Z" fill="#232323"/>
<path d="M348 240.501C350.761 237.74 355.239 237.74 358 240.501C360.761 243.263 360.761 247.74 358 250.501C355.239 253.263 350.761 253.263 348 250.501C345.239 247.74 345.239 243.263 348 240.501Z" fill="#232323"/>
<path d="M348 257.501C350.761 254.74 355.239 254.74 358 257.501C360.761 260.263 360.761 264.74 358 267.501C355.239 270.263 350.761 270.263 348 267.501C345.239 264.74 345.239 260.263 348 257.501Z" fill="#232323"/>
<path d="M367.5 257.501C370.261 254.74 374.739 254.74 377.5 257.501C380.261 260.263 380.261 264.74 377.5 267.501C374.739 270.263 370.261 270.263 367.5 267.501C364.739 264.74 364.739 260.263 367.5 257.501Z" fill="#232323"/>
<path d="M367.5 240.501C370.261 237.74 374.739 237.74 377.5 240.501C380.261 243.263 380.261 247.74 377.5 250.501C374.739 253.263 370.261 253.263 367.5 250.501C364.739 247.74 364.739 243.263 367.5 240.501Z" fill="#232323"/>
<path d="M367.5 223.001C370.261 220.24 374.739 220.24 377.5 223.001C380.261 225.763 380.261 230.24 377.5 233.001C374.739 235.763 370.261 235.763 367.5 233.001C364.739 230.24 364.739 225.763 367.5 223.001Z" fill="#232323"/>
<path d="M367.5 205.501C370.261 202.74 374.739 202.74 377.5 205.501C380.261 208.263 380.261 212.74 377.5 215.501C374.739 218.263 370.261 218.263 367.5 215.501C364.739 212.74 364.739 208.263 367.5 205.501Z" fill="#232323"/>
<path d="M385.5 205.501C388.261 202.74 392.739 202.74 395.5 205.501C398.261 208.263 398.261 212.74 395.5 215.501C392.739 218.263 388.261 218.263 385.5 215.501C382.739 212.74 382.739 208.263 385.5 205.501Z" fill="#232323"/>
<path d="M385.5 223.001C388.261 220.24 392.739 220.24 395.5 223.001C398.261 225.763 398.261 230.24 395.5 233.001C392.739 235.763 388.261 235.763 385.5 233.001C382.739 230.24 382.739 225.763 385.5 223.001Z" fill="#232323"/>
<path d="M385.5 240.501C388.261 237.74 392.739 237.74 395.5 240.501C398.261 243.263 398.261 247.74 395.5 250.501C392.739 253.263 388.261 253.263 385.5 250.501C382.739 247.74 382.739 243.263 385.5 240.501Z" fill="#232323"/>
<path d="M385.5 257.501C388.261 254.74 392.739 254.74 395.5 257.501C398.261 260.263 398.261 264.74 395.5 267.501C392.739 270.263 388.261 270.263 385.5 267.501C382.739 264.74 382.739 260.263 385.5 257.501Z" fill="#232323"/>
<path d="M403.5 257.501C406.261 254.74 410.739 254.74 413.5 257.501C416.261 260.263 416.261 264.74 413.5 267.501C410.739 270.263 406.261 270.263 403.5 267.501C400.739 264.74 400.739 260.263 403.5 257.501Z" fill="#232323"/>
<path d="M403.5 240.501C406.261 237.74 410.739 237.74 413.5 240.501C416.261 243.263 416.261 247.74 413.5 250.501C410.739 253.263 406.261 253.263 403.5 250.501C400.739 247.74 400.739 243.263 403.5 240.501Z" fill="#232323"/>
<path d="M403.5 223.001C406.261 220.24 410.739 220.24 413.5 223.001C416.261 225.763 416.261 230.24 413.5 233.001C410.739 235.763 406.261 235.763 403.5 233.001C400.739 230.24 400.739 225.763 403.5 223.001Z" fill="#232323"/>
<path d="M403.5 205.501C406.261 202.74 410.739 202.74 413.5 205.501C416.261 208.263 416.261 212.74 413.5 215.501C410.739 218.263 406.261 218.263 403.5 215.501C400.739 212.74 400.739 208.263 403.5 205.501Z" fill="#232323"/>
<path d="M385.5 88.5C388.261 85.7386 392.739 85.7386 395.5 88.5C398.261 91.2614 398.261 95.7386 395.5 98.5C392.739 101.261 388.261 101.261 385.5 98.5C382.739 95.7386 382.739 91.2614 385.5 88.5Z" fill="#232323"/>
<path d="M385.5 106C388.261 103.239 392.739 103.239 395.5 106C398.261 108.761 398.261 113.239 395.5 116C392.739 118.761 388.261 118.761 385.5 116C382.739 113.239 382.739 108.761 385.5 106Z" fill="#232323"/>
<path d="M385.5 123.5C388.261 120.739 392.739 120.739 395.5 123.5C398.261 126.261 398.261 130.739 395.5 133.5C392.739 136.261 388.261 136.261 385.5 133.5C382.739 130.739 382.739 126.261 385.5 123.5Z" fill="#232323"/>
<path d="M385.5 140.5C388.261 137.739 392.739 137.739 395.5 140.5C398.261 143.261 398.261 147.739 395.5 150.5C392.739 153.261 388.261 153.261 385.5 150.5C382.739 147.739 382.739 143.261 385.5 140.5Z" fill="#232323"/>
<path d="M403.5 140.5C406.261 137.739 410.739 137.739 413.5 140.5C416.261 143.261 416.261 147.739 413.5 150.5C410.739 153.261 406.261 153.261 403.5 150.5C400.739 147.739 400.739 143.261 403.5 140.5Z" fill="#232323"/>
<path d="M403.5 123.5C406.261 120.739 410.739 120.739 413.5 123.5C416.261 126.261 416.261 130.739 413.5 133.5C410.739 136.261 406.261 136.261 403.5 133.5C400.739 130.739 400.739 126.261 403.5 123.5Z" fill="#232323"/>
<path d="M403.5 106C406.261 103.239 410.739 103.239 413.5 106C416.261 108.761 416.261 113.239 413.5 116C410.739 118.761 406.261 118.761 403.5 116C400.739 113.239 400.739 108.761 403.5 106Z" fill="#232323"/>
<path d="M403.5 88.5C406.261 85.7386 410.739 85.7386 413.5 88.5C416.261 91.2614 416.261 95.7386 413.5 98.5C410.739 101.261 406.261 101.261 403.5 98.5C400.739 95.7386 400.739 91.2614 403.5 88.5Z" fill="#232323"/>
<path d="M108.5 406.5C105.739 403.738 105.739 399.261 108.5 396.5C111.261 393.738 115.739 393.738 118.5 396.5C121.261 399.261 121.261 403.738 118.5 406.5C115.739 409.261 111.261 409.261 108.5 406.5Z" fill="#232323"/>
<path d="M126 406.5C123.239 403.738 123.239 399.261 126 396.5C128.761 393.738 133.239 393.738 136 396.5C138.761 399.261 138.761 403.738 136 406.5C133.239 409.261 128.761 409.261 126 406.5Z" fill="#232323"/>
<path d="M143.5 406.5C140.739 403.738 140.739 399.261 143.5 396.5C146.261 393.738 150.739 393.738 153.5 396.5C156.261 399.261 156.261 403.738 153.5 406.5C150.739 409.261 146.261 409.261 143.5 406.5Z" fill="#232323"/>
<path d="M160.5 406.5C157.739 403.738 157.739 399.261 160.5 396.5C163.261 393.738 167.739 393.738 170.5 396.5C173.261 399.261 173.261 403.738 170.5 406.5C167.739 409.261 163.261 409.261 160.5 406.5Z" fill="#232323"/>
<path d="M160.5 388.5C157.739 385.738 157.739 381.261 160.5 378.5C163.261 375.738 167.739 375.738 170.5 378.5C173.261 381.261 173.261 385.738 170.5 388.5C167.739 391.261 163.261 391.261 160.5 388.5Z" fill="#232323"/>
<path d="M143.5 388.5C140.739 385.738 140.739 381.261 143.5 378.5C146.261 375.738 150.739 375.738 153.5 378.5C156.261 381.261 156.261 385.738 153.5 388.5C150.739 391.261 146.261 391.261 143.5 388.5Z" fill="#232323"/>
<path d="M126 388.5C123.239 385.738 123.239 381.261 126 378.5C128.761 375.738 133.239 375.738 136 378.5C138.761 381.261 138.761 385.738 136 388.5C133.239 391.261 128.761 391.261 126 388.5Z" fill="#232323"/>
<path d="M108.5 388.5C105.739 385.738 105.739 381.261 108.5 378.5C111.261 375.738 115.739 375.738 118.5 378.5C121.261 381.261 121.261 385.738 118.5 388.5C115.739 391.261 111.261 391.261 108.5 388.5Z" fill="#232323"/>
<path d="M60.5 406.5C57.7386 403.739 57.7386 399.262 60.5 396.5C63.2614 393.739 67.7386 393.739 70.5 396.5C73.2614 399.262 73.2614 403.739 70.5 406.5C67.7386 409.262 63.2614 409.262 60.5 406.5Z" fill="#232323"/>
<path d="M78 406.5C75.2386 403.739 75.2386 399.262 78 396.5C80.7614 393.739 85.2386 393.739 88 396.5C90.7614 399.262 90.7614 403.739 88 406.5C85.2386 409.262 80.7614 409.262 78 406.5Z" fill="#232323"/>
<path d="M78 388.5C75.2386 385.739 75.2386 381.262 78 378.5C80.7614 375.739 85.2386 375.739 88 378.5C90.7614 381.262 90.7614 385.739 88 388.5C85.2386 391.262 80.7614 391.262 78 388.5Z" fill="#232323"/>
<path d="M60.5 388.5C57.7386 385.739 57.7386 381.262 60.5 378.5C63.2614 375.739 67.7386 375.739 70.5 378.5C73.2614 381.262 73.2614 385.739 70.5 388.5C67.7386 391.262 63.2614 391.262 60.5 388.5Z" fill="#232323"/>
<path d="M93.5 406.5C90.7386 403.739 90.7386 399.262 93.5 396.5C96.2614 393.739 100.739 393.739 103.5 396.5C106.261 399.262 106.261 403.739 103.5 406.5C100.739 409.262 96.2614 409.262 93.5 406.5Z" fill="#232323"/>
<path d="M93.5 388.5C90.7386 385.739 90.7386 381.262 93.5 378.5C96.2614 375.739 100.739 375.739 103.5 378.5C106.261 381.262 106.261 385.739 103.5 388.5C100.739 391.262 96.2614 391.262 93.5 388.5Z" fill="#232323"/>
<path d="M43.5 406.5C40.7386 403.739 40.7386 399.261 43.5 396.5C46.2614 393.739 50.7386 393.739 53.5 396.5C56.2614 399.261 56.2614 403.739 53.5 406.5C50.7386 409.261 46.2614 409.261 43.5 406.5Z" fill="#232323"/>
<path d="M43.5 388.5C40.7386 385.739 40.7386 381.261 43.5 378.5C46.2614 375.739 50.7386 375.739 53.5 378.5C56.2614 381.261 56.2614 385.739 53.5 388.5C50.7386 391.261 46.2614 391.261 43.5 388.5Z" fill="#232323"/>
<path d="M26 388.5C23.2386 385.739 23.2386 381.261 26 378.5C28.7614 375.739 33.2386 375.739 36 378.5C38.7614 381.261 38.7614 385.739 36 388.5C33.2386 391.261 28.7614 391.261 26 388.5Z" fill="#232323"/>
<path d="M8.5 388.5C5.73858 385.739 5.73858 381.261 8.5 378.5C11.2614 375.739 15.7386 375.739 18.5 378.5C21.2614 381.261 21.2614 385.739 18.5 388.5C15.7386 391.261 11.2614 391.261 8.5 388.5Z" fill="#232323"/>
<path d="M385.5 18.5C388.261 15.7386 392.739 15.7386 395.5 18.5C398.261 21.2614 398.261 25.7386 395.5 28.5C392.739 31.2614 388.261 31.2614 385.5 28.5C382.739 25.7386 382.739 21.2614 385.5 18.5Z" fill="#232323"/>
<path d="M385.5 36C388.261 33.2386 392.739 33.2386 395.5 36C398.261 38.7614 398.261 43.2386 395.5 46C392.739 48.7614 388.261 48.7614 385.5 46C382.739 43.2386 382.739 38.7614 385.5 36Z" fill="#232323"/>
<path d="M385.5 53.5C388.261 50.7386 392.739 50.7386 395.5 53.5C398.261 56.2614 398.261 60.7386 395.5 63.5C392.739 66.2614 388.261 66.2614 385.5 63.5C382.739 60.7386 382.739 56.2614 385.5 53.5Z" fill="#232323"/>
<path d="M385.5 70.5C388.261 67.7386 392.739 67.7386 395.5 70.5C398.261 73.2614 398.261 77.7386 395.5 80.5C392.739 83.2614 388.261 83.2614 385.5 80.5C382.739 77.7386 382.739 73.2614 385.5 70.5Z" fill="#232323"/>
<path d="M403.5 70.5C406.261 67.7386 410.739 67.7386 413.5 70.5C416.261 73.2614 416.261 77.7386 413.5 80.5C410.739 83.2614 406.261 83.2614 403.5 80.5C400.739 77.7386 400.739 73.2614 403.5 70.5Z" fill="#232323"/>
<path d="M403.5 53.5C406.261 50.7386 410.739 50.7386 413.5 53.5C416.261 56.2614 416.261 60.7386 413.5 63.5C410.739 66.2614 406.261 66.2614 403.5 63.5C400.739 60.7386 400.739 56.2614 403.5 53.5Z" fill="#232323"/>
<path d="M348 275.501C350.761 272.74 355.239 272.74 358 275.501C360.761 278.262 360.761 282.74 358 285.501C355.239 288.262 350.761 288.262 348 285.501C345.239 282.74 345.239 278.262 348 275.501Z" fill="#232323"/>
<path d="M348 293.001C350.761 290.24 355.239 290.24 358 293.001C360.761 295.762 360.761 300.24 358 303.001C355.239 305.762 350.761 305.762 348 303.001C345.239 300.24 345.239 295.762 348 293.001Z" fill="#232323"/>
<path d="M348 310.501C350.761 307.74 355.239 307.74 358 310.501C360.761 313.262 360.761 317.74 358 320.501C355.239 323.262 350.761 323.262 348 320.501C345.239 317.74 345.239 313.262 348 310.501Z" fill="#232323"/>
<path d="M348 327.501C350.761 324.74 355.239 324.74 358 327.501C360.761 330.262 360.761 334.74 358 337.501C355.239 340.262 350.761 340.262 348 337.501C345.239 334.74 345.239 330.262 348 327.501Z" fill="#232323"/>
<path d="M367.5 327.501C370.261 324.74 374.739 324.74 377.5 327.501C380.261 330.262 380.261 334.74 377.5 337.501C374.739 340.262 370.261 340.262 367.5 337.501C364.739 334.74 364.739 330.262 367.5 327.501Z" fill="#232323"/>
<path d="M367.5 310.501C370.261 307.74 374.739 307.74 377.5 310.501C380.261 313.262 380.261 317.74 377.5 320.501C374.739 323.262 370.261 323.262 367.5 320.501C364.739 317.74 364.739 313.262 367.5 310.501Z" fill="#232323"/>
<path d="M367.5 293.001C370.261 290.24 374.739 290.24 377.5 293.001C380.261 295.762 380.261 300.24 377.5 303.001C374.739 305.762 370.261 305.762 367.5 303.001C364.739 300.24 364.739 295.762 367.5 293.001Z" fill="#232323"/>
<path d="M367.5 275.501C370.261 272.74 374.739 272.74 377.5 275.501C380.261 278.262 380.261 282.74 377.5 285.501C374.739 288.262 370.261 288.262 367.5 285.501C364.739 282.74 364.739 278.262 367.5 275.501Z" fill="#232323"/>
<path d="M385.5 275.501C388.261 272.74 392.739 272.74 395.5 275.501C398.261 278.262 398.261 282.74 395.5 285.501C392.739 288.262 388.261 288.262 385.5 285.501C382.739 282.74 382.739 278.262 385.5 275.501Z" fill="#232323"/>
<path d="M385.5 293.001C388.261 290.24 392.739 290.24 395.5 293.001C398.261 295.762 398.261 300.24 395.5 303.001C392.739 305.762 388.261 305.762 385.5 303.001C382.739 300.24 382.739 295.762 385.5 293.001Z" fill="#232323"/>
<path d="M385.5 310.501C388.261 307.74 392.739 307.74 395.5 310.501C398.261 313.262 398.261 317.74 395.5 320.501C392.739 323.262 388.261 323.262 385.5 320.501C382.739 317.74 382.739 313.262 385.5 310.501Z" fill="#232323"/>
<path d="M385.5 327.501C388.261 324.74 392.739 324.74 395.5 327.501C398.261 330.262 398.261 334.74 395.5 337.501C392.739 340.262 388.261 340.262 385.5 337.501C382.739 334.74 382.739 330.262 385.5 327.501Z" fill="#232323"/>
<path d="M403.5 327.501C406.261 324.74 410.739 324.74 413.5 327.501C416.261 330.262 416.261 334.74 413.5 337.501C410.739 340.262 406.261 340.262 403.5 337.501C400.739 334.74 400.739 330.262 403.5 327.501Z" fill="#232323"/>
<path d="M403.5 310.501C406.261 307.74 410.739 307.74 413.5 310.501C416.261 313.262 416.261 317.74 413.5 320.501C410.739 323.262 406.261 323.262 403.5 320.501C400.739 317.74 400.739 313.262 403.5 310.501Z" fill="#232323"/>
<path d="M403.5 293.001C406.261 290.24 410.739 290.24 413.5 293.001C416.261 295.762 416.261 300.24 413.5 303.001C410.739 305.762 406.261 305.762 403.5 303.001C400.739 300.24 400.739 295.762 403.5 293.001Z" fill="#232323"/>
<path d="M403.5 275.501C406.261 272.74 410.739 272.74 413.5 275.501C416.261 278.262 416.261 282.74 413.5 285.501C410.739 288.262 406.261 288.262 403.5 285.501C400.739 282.74 400.739 278.262 403.5 275.501Z" fill="#232323"/>
<path d="M74 137.5C76.7614 134.739 81.2386 134.739 84 137.5C86.7614 140.261 86.7614 144.739 84 147.5C81.2386 150.261 76.7614 150.261 74 147.5C71.2386 144.739 71.2386 140.261 74 137.5Z" fill="#232323"/>
<path d="M74 155C76.7614 152.239 81.2386 152.239 84 155C86.7614 157.761 86.7614 162.239 84 165C81.2386 167.761 76.7614 167.761 74 165C71.2386 162.239 71.2386 157.761 74 155Z" fill="#232323"/>
<path d="M74 172.5C76.7614 169.739 81.2386 169.739 84 172.5C86.7614 175.261 86.7614 179.739 84 182.5C81.2386 185.261 76.7614 185.261 74 182.5C71.2386 179.739 71.2386 175.261 74 172.5Z" fill="#232323"/>
<path d="M74 189.5C76.7614 186.739 81.2386 186.739 84 189.5C86.7614 192.261 86.7614 196.739 84 199.5C81.2386 202.261 76.7614 202.261 74 199.5C71.2386 196.739 71.2386 192.261 74 189.5Z" fill="#232323"/>
<path d="M93.5 189.5C96.2614 186.739 100.739 186.739 103.5 189.5C106.261 192.261 106.261 196.739 103.5 199.5C100.739 202.261 96.2614 202.261 93.5 199.5C90.7386 196.739 90.7386 192.261 93.5 189.5Z" fill="#232323"/>
<path d="M93.5 172.5C96.2614 169.739 100.739 169.739 103.5 172.5C106.261 175.261 106.261 179.739 103.5 182.5C100.739 185.261 96.2614 185.261 93.5 182.5C90.7386 179.739 90.7386 175.261 93.5 172.5Z" fill="#232323"/>
<path d="M93.5 155C96.2614 152.239 100.739 152.239 103.5 155C106.261 157.761 106.261 162.239 103.5 165C100.739 167.761 96.2614 167.761 93.5 165C90.7386 162.239 90.7386 157.761 93.5 155Z" fill="#232323"/>
<path d="M93.5 137.5C96.2614 134.739 100.739 134.739 103.5 137.5C106.261 140.261 106.261 144.739 103.5 147.5C100.739 150.261 96.2614 150.261 93.5 147.5C90.7386 144.739 90.7386 140.261 93.5 137.5Z" fill="#232323"/>
<path d="M111.5 137.5C114.261 134.739 118.739 134.739 121.5 137.5C124.261 140.261 124.261 144.739 121.5 147.5C118.739 150.261 114.261 150.261 111.5 147.5C108.739 144.739 108.739 140.261 111.5 137.5Z" fill="#232323"/>
<path d="M111.5 155C114.261 152.239 118.739 152.239 121.5 155C124.261 157.761 124.261 162.239 121.5 165C118.739 167.761 114.261 167.761 111.5 165C108.739 162.239 108.739 157.761 111.5 155Z" fill="#232323"/>
<path d="M111.5 172.5C114.261 169.739 118.739 169.739 121.5 172.5C124.261 175.261 124.261 179.739 121.5 182.5C118.739 185.261 114.261 185.261 111.5 182.5C108.739 179.739 108.739 175.261 111.5 172.5Z" fill="#232323"/>
<path d="M111.5 189.5C114.261 186.739 118.739 186.739 121.5 189.5C124.261 192.261 124.261 196.739 121.5 199.5C118.739 202.261 114.261 202.261 111.5 199.5C108.739 196.739 108.739 192.261 111.5 189.5Z" fill="#232323"/>
<path d="M129.5 189.5C132.261 186.739 136.739 186.739 139.5 189.5C142.261 192.261 142.261 196.739 139.5 199.5C136.739 202.261 132.261 202.261 129.5 199.5C126.739 196.739 126.739 192.261 129.5 189.5Z" fill="#232323"/>
<path d="M129.5 172.5C132.261 169.739 136.739 169.739 139.5 172.5C142.261 175.261 142.261 179.739 139.5 182.5C136.739 185.261 132.261 185.261 129.5 182.5C126.739 179.739 126.739 175.261 129.5 172.5Z" fill="#232323"/>
<path d="M129.5 155C132.261 152.239 136.739 152.239 139.5 155C142.261 157.761 142.261 162.239 139.5 165C136.739 167.761 132.261 167.761 129.5 165C126.739 162.239 126.739 157.761 129.5 155Z" fill="#232323"/>
<path d="M129.5 137.5C132.261 134.739 136.739 134.739 139.5 137.5C142.261 140.261 142.261 144.739 139.5 147.5C136.739 150.261 132.261 150.261 129.5 147.5C126.739 144.739 126.739 140.261 129.5 137.5Z" fill="#232323"/>
<path d="M222.071 189.071C224.832 186.31 229.31 186.31 232.071 189.071C234.832 191.833 234.832 196.31 232.071 199.071C229.31 201.833 224.832 201.833 222.071 199.071C219.31 196.31 219.31 191.833 222.071 189.071Z" fill="#232323"/>
<path d="M241.571 189.071C244.332 186.31 248.81 186.31 251.571 189.071C254.332 191.833 254.332 196.31 251.571 199.071C248.81 201.833 244.332 201.833 241.571 199.071C238.81 196.31 238.81 191.833 241.571 189.071Z" fill="#232323"/>
<path d="M259.571 189.071C262.332 186.31 266.81 186.31 269.571 189.071C272.332 191.833 272.332 196.31 269.571 199.071C266.81 201.833 262.332 201.833 259.571 199.071C256.81 196.31 256.81 191.833 259.571 189.071Z" fill="#232323"/>
<path d="M277.571 189.071C280.332 186.31 284.81 186.31 287.571 189.071C290.332 191.833 290.332 196.31 287.571 199.071C284.81 201.833 280.332 201.833 277.571 199.071C274.81 196.31 274.81 191.833 277.571 189.071Z" fill="#232323"/>
<path d="M296.071 189.071C298.832 186.31 303.31 186.31 306.071 189.071C308.832 191.833 308.832 196.31 306.071 199.071C303.31 201.833 298.832 201.833 296.071 199.071C293.31 196.31 293.31 191.833 296.071 189.071Z" fill="#232323"/>
<path d="M315.571 189.071C318.332 186.31 322.81 186.31 325.571 189.071C328.332 191.833 328.332 196.31 325.571 199.071C322.81 201.833 318.332 201.833 315.571 199.071C312.81 196.31 312.81 191.833 315.571 189.071Z" fill="#232323"/>
<path d="M333.571 189.071C336.332 186.31 340.81 186.31 343.571 189.071C346.332 191.833 346.332 196.31 343.571 199.071C340.81 201.833 336.332 201.833 333.571 199.071C330.81 196.31 330.81 191.833 333.571 189.071Z" fill="#232323"/>
<path d="M351.571 189.071C354.332 186.31 358.81 186.31 361.571 189.071C364.332 191.833 364.332 196.31 361.571 199.071C358.81 201.833 354.332 201.833 351.571 199.071C348.81 196.31 348.81 191.833 351.571 189.071Z" fill="#232323"/>
<path d="M367.071 189.071C369.832 186.31 374.31 186.31 377.071 189.071C379.832 191.833 379.832 196.31 377.071 199.071C374.31 201.833 369.832 201.833 367.071 199.071C364.31 196.31 364.31 191.833 367.071 189.071Z" fill="#232323"/>
<path d="M386.571 189.071C389.332 186.31 393.81 186.31 396.571 189.071C399.332 191.833 399.332 196.31 396.571 199.071C393.81 201.833 389.332 201.833 386.571 199.071C383.81 196.31 383.81 191.833 386.571 189.071Z" fill="#232323"/>
<path d="M404.571 189.071C407.332 186.31 411.81 186.31 414.571 189.071C417.332 191.833 417.332 196.31 414.571 199.071C411.81 201.833 407.332 201.833 404.571 199.071C401.81 196.31 401.81 191.833 404.571 189.071Z" fill="#232323"/>
<path d="M386.071 157.5C388.832 154.738 393.31 154.738 396.071 157.5C398.832 160.261 398.832 164.738 396.071 167.5C393.31 170.261 388.832 170.261 386.071 167.5C383.31 164.738 383.31 160.261 386.071 157.5Z" fill="#232323"/>
<path d="M404.071 157.5C406.832 154.738 411.31 154.738 414.071 157.5C416.832 160.261 416.832 164.738 414.071 167.5C411.31 170.261 406.832 170.261 404.071 167.5C401.31 164.738 401.31 160.261 404.071 157.5Z" fill="#232323"/>
</svg>
