<svg width="500" height="368" viewBox="0 0 500 368" fill="none" xmlns="http://www.w3.org/2000/svg">
<path d="M158.787 40.978L158.794 40.9497V40.9207V6.00933C158.794 5.10709 158.51 3.72609 157.661 2.4778C157.059 1.59238 156.175 0.777928 154.919 0.25H499.75V367.75H0.25V0.25H116.508C114.907 1.08174 112.995 2.87122 112.995 6.00933V40.9207V40.9535L113.004 40.9852C113.203 41.7287 113.675 42.8489 114.456 43.8175C115.237 44.7874 116.345 45.6264 117.812 45.7484L117.822 45.7492H117.833H153.088C154.613 45.8468 157.836 45.0121 158.787 40.978ZM158.294 124.765V125.015H158.544H250.323V240.087V240.337H250.573H343.463C346.659 240.337 351.583 239.353 356.002 236.403C360.429 233.448 364.342 228.522 365.5 220.665L365.502 220.647V220.628V125.051V124.802L365.253 124.801L250.823 124.516V42.9238V42.6738H250.573H180.623C177.232 42.5779 172.061 43.5482 167.53 46.7692C162.987 49.9984 159.104 55.4784 158.295 64.363L158.294 64.3743V64.3857V124.765ZM227.638 240.337H227.888V240.087V217.481V217.231H227.638H135.895H135.605L135.647 217.517C137.031 226.958 140.882 232.741 145.157 236.127C149.424 239.505 154.096 240.481 157.116 240.337H227.638ZM365.252 103.267H365.502V103.017V32.3359V32.3208L365.5 32.3057C365.066 28.7391 363.403 23.4127 359.82 19.0007C356.23 14.5797 350.712 11.0807 342.6 11.1964L342.354 11.1999L342.353 11.4456L342.067 103.016L342.066 103.267H342.317H365.252Z" fill="#EFEEE8" stroke="black" stroke-width="0.5"/>
</svg>
