<svg width="80" height="80" viewBox="0 0 80 80" fill="none" xmlns="http://www.w3.org/2000/svg">
<path d="M13.3333 22.2222C13.3333 20.1852 14.6667 16.1111 20 16.1111H40V40H13.3333V22.2222Z" fill="#F8F8FF"/>
<path fill-rule="evenodd" clip-rule="evenodd" d="M73.3333 16.1111V35.4098H80V22.2222C79.8148 20.1852 78.2222 16.1111 73.3333 16.1111ZM73.3333 40H80V73.3333C80 78.6667 75.5556 80 73.3333 80H40V73.3333V40H73.3333ZM35.4098 73.4426L13.3333 73.3333C13.5185 75.5556 15.1111 80 20 80H35.4098V73.4426Z" fill="#F8F8FF"/>
<path d="M13.3335 6.66683C13.3335 10.3487 10.3487 13.3335 6.66683 13.3335C2.98493 13.3335 0.000164032 10.3487 0.000164032 6.66683C0.000164032 2.98493 2.98493 0.000164032 6.66683 0.000164032C10.3487 0.000164032 13.3335 2.98493 13.3335 6.66683Z" fill="#A8D5BA"/>
</svg>
