<svg width="254" height="260" viewBox="0 0 254 260" fill="none" xmlns="http://www.w3.org/2000/svg">
<g filter="url(#filter0_d_191_249)">
<path d="M46.7247 64.029C46.7247 57.0209 51.3119 43.0046 69.6605 43.0046H138.468V125.191H46.7247V64.029Z" fill="#EFEEE8"/>
<path fill-rule="evenodd" clip-rule="evenodd" d="M230.211 11.4679V103.211H253.147V32.4924C252.51 25.4842 247.031 11.4679 230.211 11.4679ZM138.468 125.191H253.147V217.89C253.147 236.239 237.856 240.826 230.211 240.826H138.468V125.191Z" fill="#EFEEE8"/>
<path d="M115.532 217.89H23.7889C24.426 225.535 29.9051 240.826 46.7247 240.826H115.532V217.89Z" fill="#EFEEE8"/>
<path d="M69.6605 43.0046C51.3119 43.0046 46.7247 57.0209 46.7247 64.029V125.191H138.468M69.6605 43.0046C88.0091 43.0046 123.177 43.0046 138.468 43.0046M69.6605 43.0046H138.468M138.468 43.0046V125.191M46.7247 240.826C29.9051 240.826 24.426 225.535 23.7889 217.89H115.532V240.826M46.7247 240.826H115.532M46.7247 240.826C54.4497 240.826 82.3605 240.826 115.532 240.826M253.147 32.4924C252.51 25.4842 247.031 11.4679 230.211 11.4679V103.211H253.147M253.147 32.4924V103.211M253.147 32.4924C253.147 51.1728 253.147 76.843 253.147 103.211M138.468 125.191H253.147V217.89C253.147 236.239 237.856 240.826 230.211 240.826H138.468V125.191Z" stroke="black"/>
<path d="M229.961 103.206H253.086V32.1182" stroke="black"/>
<path d="M46.2249 35.8716C46.2249 41.1183 41.9716 45.3716 36.7249 45.3716H10.8533C5.60658 45.3716 1.35329 41.1183 1.35329 35.8716V10C1.35329 4.75331 5.60659 0.500019 10.8533 0.500019H36.7249C41.9716 0.500019 46.2249 4.75331 46.2249 10V35.8716Z" fill="#EFEEE8" stroke="black"/>
</g>
<defs>
<filter id="filter0_d_191_249" x="0.853271" y="0" width="252.793" height="259.326" filterUnits="userSpaceOnUse" color-interpolation-filters="sRGB">
<feFlood flood-opacity="0" result="BackgroundImageFix"/>
<feColorMatrix in="SourceAlpha" type="matrix" values="0 0 0 0 0 0 0 0 0 0 0 0 0 0 0 0 0 0 127 0" result="hardAlpha"/>
<feOffset dy="18"/>
<feComposite in2="hardAlpha" operator="out"/>
<feColorMatrix type="matrix" values="0 0 0 0 0 0 0 0 0 0 0 0 0 0 0 0 0 0 0.35 0"/>
<feBlend mode="normal" in2="BackgroundImageFix" result="effect1_dropShadow_191_249"/>
<feBlend mode="normal" in="SourceGraphic" in2="effect1_dropShadow_191_249" result="shape"/>
</filter>
</defs>
</svg>
