<svg width="440" height="420" viewBox="0 0 440 420" fill="none" xmlns="http://www.w3.org/2000/svg">
<g filter="url(#filter0_i_228_2)">
<path d="M80 111.667C80 99.4444 88 75 120 75H240V218.333H80V111.667Z" fill="white"/>
<path fill-rule="evenodd" clip-rule="evenodd" d="M400 20V180H440V56.6667C438.889 44.4444 429.333 20 400 20ZM240 218.333H440V380C440 412 413.333 420 400 420H240V218.333Z" fill="white"/>
<path d="M200 380H40C41.1111 393.333 50.6666 420 80 420H200V380Z" fill="white"/>
<path d="M80 70C80 75.5228 75.5228 80 70 80H9.99999C4.47715 80 -7.62939e-06 75.5228 -7.62939e-06 70V9.99999C-7.62939e-06 4.47715 4.47714 -7.62939e-06 9.99999 -7.62939e-06H70C75.5228 -7.62939e-06 80 4.47714 80 9.99999V70Z" fill="white"/>
</g>
<defs>
<filter id="filter0_i_228_2" x="0" y="0" width="440" height="436" filterUnits="userSpaceOnUse" color-interpolation-filters="sRGB">
<feFlood flood-opacity="0" result="BackgroundImageFix"/>
<feBlend mode="normal" in="SourceGraphic" in2="BackgroundImageFix" result="shape"/>
<feColorMatrix in="SourceAlpha" type="matrix" values="0 0 0 0 0 0 0 0 0 0 0 0 0 0 0 0 0 0 127 0" result="hardAlpha"/>
<feOffset dy="18"/>
<feGaussianBlur stdDeviation="8"/>
<feComposite in2="hardAlpha" operator="arithmetic" k2="-1" k3="1"/>
<feColorMatrix type="matrix" values="0 0 0 0 0 0 0 0 0 0 0 0 0 0 0 0 0 0 0.35 0"/>
<feBlend mode="normal" in2="shape" result="effect1_innerShadow_228_2"/>
</filter>
</defs>
</svg>
