<svg width="443" height="423" viewBox="0 0 443 423" fill="none" xmlns="http://www.w3.org/2000/svg">
<path d="M120.571 75.3574C88.419 75.3574 80.3808 99.9182 80.3808 112.199V219.373H241.143M120.571 75.3574C152.724 75.3574 214.349 75.3574 241.143 75.3574M120.571 75.3574H241.143M241.143 75.3574V219.373M69.4431 422C39.9701 422 8.23884 395.206 7.12244 381.81H200.952V422M69.4431 422H200.952M69.4431 422C82.9796 422 142.826 422 200.952 422M241.143 219.373H442.095V381.81C442.095 413.962 415.301 422 401.904 422H241.143V219.373ZM401.904 0.890594V180.857H442.095V44.515C440.489 36.5521 430.202 0.890594 401.904 0.890594Z" stroke="black"/>
<path d="M79.8809 70.3809C79.8809 75.6276 75.6276 79.8809 70.3809 79.8809H10C4.75331 79.8809 0.500008 75.6276 0.500008 70.3809V9.99995C0.500008 4.75325 4.7533 0.499947 10 0.499947H70.3809C75.6276 0.499947 79.8809 4.75324 79.8809 9.99995V70.3809Z" stroke="black"/>
</svg>
