<svg width="393" height="375" viewBox="0 0 393 375" fill="none" xmlns="http://www.w3.org/2000/svg">
<path fill-rule="evenodd" clip-rule="evenodd" d="M213.818 194.515H392V338.546C392 367.055 368.242 374.182 356.364 374.182H213.818V194.515Z" fill="#EFEEE8"/>
<path d="M178.182 338.546H35.6362C36.6261 350.424 45.1392 374.182 71.2726 374.182H178.182V338.546Z" fill="#EFEEE8"/>
<path d="M106.909 66.8181C78.3999 66.8181 71.2726 88.5959 71.2726 99.4848V194.515H213.818V66.8181H106.909Z" fill="#EFEEE8"/>
<path d="M356.364 17.8181V160.364H392V44C390.576 36.9394 381.455 17.8181 356.364 17.8181Z" fill="#EFEEE8"/>
<path d="M106.909 66.8181C78.3999 66.8181 71.2726 88.5959 71.2726 99.4848V194.515H213.818M106.909 66.8181C135.418 66.8181 190.061 66.8181 213.818 66.8181M106.909 66.8181H213.818M213.818 66.8181V194.515M71.2726 374.182C45.1392 374.182 36.6261 350.424 35.6362 338.546H178.182V374.182M71.2726 374.182H178.182M71.2726 374.182C83.2752 374.182 126.642 374.182 178.182 374.182M213.818 194.515H392V338.546C392 367.055 368.242 374.182 356.364 374.182H213.818V194.515ZM356.364 17.8181V160.364H392V44C390.576 36.9394 381.455 17.8181 356.364 17.8181Z" stroke="black"/>
<path d="M61.2727 70.7727H9.99995C4.75325 70.7727 0.499947 66.5194 0.499947 61.2727V9.99995C0.499947 4.75325 4.75324 0.499947 9.99995 0.499947H61.2727C66.5194 0.499947 70.7727 4.75324 70.7727 9.99995V61.2727C70.7727 66.5194 66.5194 70.7727 61.2727 70.7727Z" fill="#EFEEE8" stroke="black"/>
</svg>
