<svg width="1256" height="133" viewBox="0 0 1256 133" fill="none" xmlns="http://www.w3.org/2000/svg">
<path d="M1256 131.419H1242.99L1171.05 22.1199V131.419H1158.04V1.48682H1171.05L1242.99 110.6V1.48682H1256V131.419Z" fill="#F8F8FF"/>
<path d="M959.677 1.48682V12.2681H923.616V131.419H910.604V12.2681H874.356V1.48682H959.677Z" fill="#F8F8FF"/>
<path d="M841.392 100.563H782.281L770.942 131.42H757.186L804.587 3.16016H819.271L866.486 131.42H852.73L841.392 100.563ZM837.488 89.7819L811.836 19.5179L786.184 89.7819H837.488Z" fill="#F8F8FF"/>
<path d="M640.108 131.419L607.951 77.1414H583.972V131.419H570.96V1.48682H609.995C624.494 1.48682 635.461 4.95664 642.897 11.8963C650.456 18.8359 654.236 27.9442 654.236 39.2212C654.236 48.6393 651.509 56.6942 646.057 63.386C640.728 69.9539 632.797 74.2292 622.264 76.212L655.723 131.419H640.108ZM583.972 66.546H610.181C620.343 66.546 627.964 64.0676 633.045 59.1107C638.249 54.1538 640.852 47.524 640.852 39.2212C640.852 30.6705 638.373 24.1026 633.417 19.5175C628.46 14.8085 620.653 12.4539 609.995 12.4539H583.972V66.546Z" fill="#F8F8FF"/>
<path d="M341.721 100.563H282.61L271.271 131.42H257.515L304.916 3.16016H319.6L366.815 131.42H353.059L341.721 100.563ZM337.817 89.7819L312.165 19.5179L286.513 89.7819H337.817Z" fill="#F8F8FF"/>
<path d="M85.3205 1.48682V12.2681H49.2591V131.419H36.2473V12.2681H0V1.48682H85.3205Z" fill="#F8F8FF"/>
<path fill-rule="evenodd" clip-rule="evenodd" d="M115.161 60.5981V12.0825H169.996V1.30127H102.149V131.42H169.996V120.638H115.161V71.3793H133.216V60.5981H115.161Z" fill="#F8F8FF"/>
<path d="M425.323 66.3604C425.323 53.5964 428.111 42.1955 433.688 32.1578C439.264 21.9962 446.885 14.1271 456.551 8.55064C466.217 2.85021 476.999 0 488.895 0C503.394 0 515.786 3.46983 526.072 10.4095C536.481 17.2252 544.041 26.8911 548.75 39.4073H533.507C529.789 30.6088 524.089 23.7311 516.406 18.7742C508.847 13.8173 499.676 11.3389 488.895 11.3389C479.353 11.3389 470.74 13.5695 463.057 18.0307C455.498 22.4919 449.55 28.9359 445.213 37.3626C440.875 45.6654 438.707 55.3313 438.707 66.3604C438.707 77.3895 440.875 87.0554 445.213 95.3582C449.55 103.661 455.498 110.043 463.057 114.504C470.74 118.965 479.353 121.196 488.895 121.196C499.676 121.196 508.847 118.78 516.406 113.947C524.089 108.99 529.789 102.174 533.507 93.4994H548.75C544.041 105.892 536.481 115.496 526.072 122.311C515.662 129.127 503.27 132.535 488.895 132.535C476.999 132.535 466.217 129.747 456.551 124.17C446.885 118.47 439.264 110.601 433.688 100.563C428.111 90.5253 425.323 79.1244 425.323 66.3604Z" fill="#F8F8FF"/>
<path fill-rule="evenodd" clip-rule="evenodd" d="M989.517 58.8631V1.48706H976.505V131.42H989.517V73.1141H982.704V58.8631H989.517Z" fill="#F8F8FF"/>
<path d="M204.929 120.762H251.586V131.358H191.917V1.42505H204.929V120.762Z" fill="#F8F8FF"/>
<path fill-rule="evenodd" clip-rule="evenodd" d="M1040.92 8.5507C1048.69 4.02361 1057.17 1.29415 1066.35 0.362327V11.9699C1059.56 12.8238 1053.31 14.906 1047.61 18.2166C1039.93 22.6778 1033.85 29.0598 1029.39 37.3626C1025.97 43.7282 1023.86 50.895 1023.06 58.8631H1009.65C1010.54 49.0891 1013.22 40.1874 1017.68 32.1579C1023.38 21.9963 1031.13 14.1272 1040.92 8.5507ZM1009.59 73.1142C1010.41 83.2014 1013.11 92.4129 1017.68 100.749C1023.38 110.787 1031.13 118.656 1040.92 124.356C1048.69 128.785 1057.17 131.455 1066.35 132.366V120.937C1059.56 120.083 1053.31 118.001 1047.61 114.69C1039.93 110.229 1033.85 103.847 1029.39 95.5442C1025.86 88.881 1023.73 81.4044 1022.99 73.1142H1009.59ZM1099.66 114.69C1093.87 118.051 1087.52 120.146 1080.6 120.975V132.403C1090.01 131.527 1098.65 128.845 1106.53 124.356C1116.32 118.656 1124.01 110.787 1129.58 100.749C1135.16 90.5873 1137.95 79.1245 1137.95 66.3605C1137.95 53.5965 1135.16 42.1956 1129.58 32.1579C1124.01 21.9963 1116.32 14.1272 1106.53 8.5507C1098.65 3.96185 1090.01 1.22002 1080.6 0.325195V11.9318C1087.52 12.7606 1093.87 14.8556 1099.66 18.2166C1107.34 22.6778 1113.41 29.0598 1117.87 37.3626C1122.33 45.6654 1124.56 55.3314 1124.56 66.3605C1124.56 77.3895 1122.33 87.1174 1117.87 95.5442C1113.41 103.847 1107.34 110.229 1099.66 114.69Z" fill="#F8F8FF"/>
<path fill-rule="evenodd" clip-rule="evenodd" d="M689.352 60.5981V12.0825H744.188V1.30127H676.34V131.42H744.188V120.638H689.352V71.3793H710.825V60.5981H689.352Z" fill="#F8F8FF"/>
</svg>
