<svg width="495" height="477" viewBox="0 0 495 477" fill="none" xmlns="http://www.w3.org/2000/svg">
<line x1="229.5" y1="477" x2="229.5" y2="-2.18557e-08" stroke="black" stroke-opacity="0.4"/>
<line x1="-4.37114e-08" y1="408.5" x2="495" y2="408.5" stroke="black" stroke-opacity="0.4"/>
<line x1="110.5" y1="477" x2="110.5" y2="-2.18557e-08" stroke="black" stroke-opacity="0.4"/>
<line x1="31.5" y1="477" x2="31.5" y2="-2.18557e-08" stroke="black" stroke-opacity="0.4"/>
<line x1="464.5" y1="477" x2="464.5" y2="-2.18557e-08" stroke="black" stroke-opacity="0.4"/>
<line x1="423.5" y1="477" x2="423.5" y2="-2.18557e-08" stroke="black" stroke-opacity="0.4"/>
<path d="M100.727 113.227H42C36.7533 113.227 32.5 108.974 32.5 103.727V45C32.5 39.7533 36.7533 35.5 42 35.5H100.727C105.974 35.5 110.227 39.7533 110.227 45V103.727C110.227 108.974 105.974 113.227 100.727 113.227Z" fill="#232323" stroke="black"/>
<path fill-rule="evenodd" clip-rule="evenodd" d="M268.182 249.86H465V408.955C465 440.446 438.758 448.319 425.636 448.319H268.182V249.86Z" fill="#232323"/>
<path d="M150 113.5C118.509 113.5 110.727 132.863 110.727 144.89V249.86H268.182V113.5H150Z" fill="#232323"/>
<path d="M425.636 35.8723V212.137H465V78.5992C463.427 70.8001 453.352 35.8723 425.636 35.8723Z" fill="#232323"/>
<path d="M228.818 408.955H38.9759C40.0693 422.076 71.1478 448.319 100.014 448.319H228.818V408.955Z" fill="#232323"/>
<path d="M150 113.5C118.509 113.5 110.727 132.863 110.727 144.89V249.86H268.182M150 113.5C181.491 113.5 241.939 113.5 268.182 113.5M150 113.5H268.182M268.182 113.5V249.86M100.014 448.319C71.1478 448.319 40.0693 422.076 38.9759 408.955H228.818V448.319M100.014 448.319H228.818M100.014 448.319C113.273 448.319 171.887 448.319 228.818 448.319M268.182 249.86H465V408.955C465 440.446 438.758 448.319 425.636 448.319H268.182V249.86ZM425.636 35.8723V212.137H465V78.5992C463.427 70.8001 453.352 35.8723 425.636 35.8723Z" stroke="black"/>
<line x1="267.5" y1="477" x2="267.5" y2="-2.18557e-08" stroke="black" stroke-opacity="0.4"/>
<line x1="4.37114e-08" y1="35.5" x2="495" y2="35.5" stroke="black" stroke-opacity="0.4"/>
<line x1="-4.37114e-08" y1="113.5" x2="495" y2="113.5" stroke="black" stroke-opacity="0.4"/>
<line x1="4.37114e-08" y1="249.5" x2="495" y2="249.5" stroke="black" stroke-opacity="0.4"/>
<line x1="4.37114e-08" y1="447.5" x2="495" y2="447.5" stroke="black" stroke-opacity="0.4"/>
</svg>
