<svg width="1256" height="212" viewBox="0 0 1256 212" fill="none" xmlns="http://www.w3.org/2000/svg">
<path d="M1256 131.419H1242.99L1171.05 22.1199V131.419H1158.04V1.48682H1171.05L1242.99 110.6V1.48682H1256V131.419Z" fill="#F8F8FF"/>
<path d="M959.677 1.48682V12.2681H923.616V131.419H910.604V12.2681H874.356V1.48682H959.677Z" fill="#F8F8FF"/>
<path d="M841.392 100.563H782.281L770.942 131.42H757.186L804.587 3.16016H819.271L866.486 131.42H852.73L841.392 100.563ZM837.488 89.7819L811.836 19.5179L786.184 89.7819H837.488Z" fill="#F8F8FF"/>
<path d="M640.108 131.419L607.951 77.1414H583.972V131.419H570.96V1.48682H609.995C624.494 1.48682 635.461 4.95664 642.897 11.8963C650.456 18.8359 654.236 27.9442 654.236 39.2212C654.236 48.6393 651.509 56.6942 646.057 63.386C640.728 69.9539 632.797 74.2292 622.264 76.212L655.723 131.419H640.108ZM583.972 66.546H610.181C620.343 66.546 627.964 64.0676 633.045 59.1107C638.249 54.1538 640.852 47.524 640.852 39.2212C640.852 30.6705 638.373 24.1026 633.417 19.5175C628.46 14.8085 620.653 12.4539 609.995 12.4539H583.972V66.546Z" fill="#F8F8FF"/>
<path d="M341.721 100.563H282.61L271.271 131.42H257.515L304.916 3.16016H319.6L366.815 131.42H353.059L341.721 100.563ZM337.817 89.7819L312.165 19.5179L286.513 89.7819H337.817Z" fill="#F8F8FF"/>
<path d="M85.3205 1.48682V12.2681H49.2591V131.419H36.2473V12.2681H0V1.48682H85.3205Z" fill="#F8F8FF"/>
<path fill-rule="evenodd" clip-rule="evenodd" d="M115.161 60.5981V12.0825H169.996V1.30127H102.149V131.42H169.996V120.638H115.161V71.3793H133.216V60.5981H115.161Z" fill="#F8F8FF"/>
<path d="M425.323 66.3604C425.323 53.5964 428.111 42.1955 433.688 32.1578C439.264 21.9962 446.885 14.1271 456.551 8.55064C466.217 2.85021 476.999 0 488.895 0C503.394 0 515.786 3.46983 526.072 10.4095C536.481 17.2252 544.041 26.8911 548.75 39.4073H533.507C529.789 30.6088 524.089 23.7311 516.406 18.7742C508.847 13.8173 499.676 11.3389 488.895 11.3389C479.353 11.3389 470.74 13.5695 463.057 18.0307C455.498 22.4919 449.55 28.9359 445.213 37.3626C440.875 45.6654 438.707 55.3313 438.707 66.3604C438.707 77.3895 440.875 87.0554 445.213 95.3582C449.55 103.661 455.498 110.043 463.057 114.504C470.74 118.965 479.353 121.196 488.895 121.196C499.676 121.196 508.847 118.78 516.406 113.947C524.089 108.99 529.789 102.174 533.507 93.4994H548.75C544.041 105.892 536.481 115.496 526.072 122.311C515.662 129.127 503.27 132.535 488.895 132.535C476.999 132.535 466.217 129.747 456.551 124.17C446.885 118.47 439.264 110.601 433.688 100.563C428.111 90.5253 425.323 79.1244 425.323 66.3604Z" fill="#F8F8FF"/>
<path fill-rule="evenodd" clip-rule="evenodd" d="M989.517 58.8631V1.48706H976.505V131.42H989.517V73.1141H982.704V58.8631H989.517Z" fill="#F8F8FF"/>
<path d="M204.929 120.762H251.586V131.358H191.917V1.42505H204.929V120.762Z" fill="#F8F8FF"/>
<path fill-rule="evenodd" clip-rule="evenodd" d="M1040.92 8.5507C1048.69 4.02361 1057.17 1.29416 1066.35 0.362327V11.9699C1059.56 12.8238 1053.31 14.906 1047.61 18.2166C1039.93 22.6778 1033.85 29.0598 1029.39 37.3626C1025.97 43.7282 1023.86 50.895 1023.06 58.8631H1009.65C1010.54 49.0891 1013.22 40.1874 1017.68 32.1579C1023.38 21.9963 1031.13 14.1272 1040.92 8.5507ZM1009.59 73.1142C1010.41 83.2014 1013.11 92.413 1017.68 100.749C1023.38 110.787 1031.13 118.656 1040.92 124.356C1048.69 128.785 1057.17 131.455 1066.35 132.366V120.937C1059.56 120.083 1053.31 118.001 1047.61 114.69C1039.93 110.229 1033.85 103.847 1029.39 95.5442C1025.86 88.881 1023.73 81.4044 1022.99 73.1142H1009.59ZM1099.66 114.69C1093.87 118.051 1087.52 120.146 1080.6 120.975V132.403C1090.01 131.527 1098.65 128.845 1106.53 124.356C1116.32 118.656 1124.01 110.787 1129.58 100.749C1135.16 90.5873 1137.95 79.1245 1137.95 66.3605C1137.95 53.5965 1135.16 42.1956 1129.58 32.1579C1124.01 21.9963 1116.32 14.1272 1106.53 8.5507C1098.65 3.96185 1090.01 1.22002 1080.6 0.325195V11.9318C1087.52 12.7606 1093.87 14.8556 1099.66 18.2166C1107.34 22.6778 1113.41 29.0598 1117.87 37.3626C1122.33 45.6654 1124.56 55.3314 1124.56 66.3605C1124.56 77.3895 1122.33 87.1174 1117.87 95.5442C1113.41 103.847 1107.34 110.229 1099.66 114.69Z" fill="#F8F8FF"/>
<path fill-rule="evenodd" clip-rule="evenodd" d="M689.352 60.5981V12.0825H744.188V1.30127H676.34V131.42H744.188V120.638H689.352V71.3793H710.825V60.5981H689.352Z" fill="#F8F8FF"/>
<path d="M56 203H53.28V191.36C53.28 188.933 52.8933 187.147 52.12 186C51.3467 184.853 50.2 184.28 48.68 184.28C47.1067 184.28 45.6933 184.84 44.44 185.96C43.2133 187.08 42.3467 188.52 41.84 190.28V203H39.12V191.36C39.12 188.907 38.7467 187.12 38 186C37.2533 184.853 36.1067 184.28 34.56 184.28C33.0133 184.28 31.6133 184.827 30.36 185.92C29.1067 187.013 28.2267 188.453 27.72 190.24V203H25V182.16H27.48V186.88C28.36 185.253 29.48 184 30.84 183.12C32.2267 182.24 33.76 181.8 35.44 181.8C37.1733 181.8 38.5733 182.293 39.64 183.28C40.7067 184.267 41.36 185.56 41.6 187.16C42.56 185.4 43.7067 184.067 45.04 183.16C46.4 182.253 47.9333 181.8 49.64 181.8C50.8133 181.8 51.8 182.013 52.6 182.44C53.4267 182.867 54.08 183.48 54.56 184.28C55.0667 185.053 55.4267 186 55.64 187.12C55.88 188.213 56 189.44 56 190.8V203ZM69.8378 203.4C68.3445 203.4 66.9578 203.12 65.6778 202.56C64.4245 201.973 63.3311 201.187 62.3978 200.2C61.4911 199.187 60.7845 198.04 60.2778 196.76C59.7711 195.453 59.5178 194.08 59.5178 192.64C59.5178 191.147 59.7711 189.76 60.2778 188.48C60.7845 187.173 61.5045 186.027 62.4378 185.04C63.3711 184.027 64.4645 183.24 65.7178 182.68C66.9978 182.093 68.3845 181.8 69.8778 181.8C71.3711 181.8 72.7445 182.093 73.9978 182.68C75.2511 183.24 76.3445 184.027 77.2778 185.04C78.2111 186.027 78.9311 187.173 79.4378 188.48C79.9445 189.76 80.1978 191.147 80.1978 192.64C80.1978 194.08 79.9445 195.453 79.4378 196.76C78.9311 198.04 78.2111 199.187 77.2778 200.2C76.3711 201.187 75.2778 201.973 73.9978 202.56C72.7445 203.12 71.3578 203.4 69.8378 203.4ZM62.2778 192.68C62.2778 194.227 62.6111 195.64 63.2778 196.92C63.9711 198.173 64.8911 199.173 66.0378 199.92C67.1845 200.64 68.4511 201 69.8378 201C71.2245 201 72.4911 200.627 73.6378 199.88C74.7845 199.133 75.7045 198.12 76.3978 196.84C77.0911 195.533 77.4378 194.12 77.4378 192.6C77.4378 191.053 77.0911 189.64 76.3978 188.36C75.7045 187.08 74.7845 186.067 73.6378 185.32C72.4911 184.573 71.2245 184.2 69.8378 184.2C68.4511 184.2 67.1845 184.587 66.0378 185.36C64.9178 186.133 64.0111 187.16 63.3178 188.44C62.6245 189.693 62.2778 191.107 62.2778 192.68ZM94.3469 184.56C92.5335 184.613 90.9335 185.12 89.5469 186.08C88.1869 187.04 87.2269 188.36 86.6669 190.04V203H83.9469V182.16H86.5069V187.16C87.2269 185.693 88.1735 184.507 89.3469 183.6C90.5469 182.693 91.8135 182.187 93.1469 182.08C93.4135 182.053 93.6402 182.04 93.8269 182.04C94.0402 182.04 94.2135 182.053 94.3469 182.08V184.56ZM105.506 203.4C104.013 203.4 102.626 203.12 101.346 202.56C100.066 201.973 98.9596 201.187 98.0262 200.2C97.0929 199.187 96.3596 198.027 95.8262 196.72C95.3196 195.413 95.0662 194.013 95.0662 192.52C95.0662 190.573 95.5062 188.787 96.3862 187.16C97.2929 185.533 98.5329 184.24 100.106 183.28C101.68 182.293 103.466 181.8 105.466 181.8C107.52 181.8 109.306 182.293 110.826 183.28C112.373 184.267 113.586 185.573 114.466 187.2C115.346 188.8 115.786 190.56 115.786 192.48C115.786 192.693 115.786 192.907 115.786 193.12C115.786 193.307 115.773 193.453 115.746 193.56H97.9062C98.0396 195.053 98.4529 196.387 99.1462 197.56C99.8662 198.707 100.786 199.627 101.906 200.32C103.053 200.987 104.293 201.32 105.626 201.32C106.986 201.32 108.266 200.973 109.466 200.28C110.693 199.587 111.546 198.68 112.026 197.56L114.386 198.2C113.96 199.187 113.306 200.08 112.426 200.88C111.546 201.68 110.506 202.307 109.306 202.76C108.133 203.187 106.866 203.4 105.506 203.4ZM97.8262 191.6H113.226C113.12 190.08 112.706 188.747 111.986 187.6C111.293 186.453 110.373 185.56 109.226 184.92C108.106 184.253 106.866 183.92 105.506 183.92C104.146 183.92 102.906 184.253 101.786 184.92C100.666 185.56 99.7462 186.467 99.0262 187.64C98.3329 188.787 97.9329 190.107 97.8262 191.6ZM138.578 202C138.365 202.08 138.031 202.227 137.578 202.44C137.125 202.653 136.578 202.84 135.938 203C135.298 203.16 134.605 203.24 133.858 203.24C133.085 203.24 132.351 203.093 131.658 202.8C130.991 202.507 130.458 202.067 130.058 201.48C129.658 200.867 129.458 200.12 129.458 199.24V184.32H126.578V182.16H129.458V175.12H132.178V182.16H136.978V184.32H132.178V198.48C132.231 199.227 132.498 199.787 132.978 200.16C133.485 200.533 134.058 200.72 134.698 200.72C135.445 200.72 136.125 200.6 136.738 200.36C137.351 200.093 137.725 199.907 137.858 199.8L138.578 202ZM158.697 203H155.977V191.36C155.977 189.013 155.563 187.253 154.737 186.08C153.91 184.88 152.723 184.28 151.177 184.28C150.163 184.28 149.15 184.547 148.137 185.08C147.15 185.587 146.27 186.293 145.497 187.2C144.75 188.08 144.217 189.093 143.897 190.24V203H141.177V173.8H143.897V186.88C144.723 185.333 145.87 184.107 147.337 183.2C148.83 182.267 150.417 181.8 152.097 181.8C153.297 181.8 154.31 182.013 155.137 182.44C155.99 182.867 156.67 183.493 157.177 184.32C157.71 185.12 158.097 186.067 158.337 187.16C158.577 188.227 158.697 189.44 158.697 190.8V203ZM162.017 197C162.017 195.693 162.39 194.573 163.137 193.64C163.884 192.68 164.91 191.947 166.217 191.44C167.55 190.907 169.084 190.64 170.817 190.64C171.83 190.64 172.884 190.72 173.977 190.88C175.07 191.04 176.044 191.28 176.897 191.6V189.84C176.897 188.08 176.377 186.68 175.337 185.64C174.297 184.6 172.857 184.08 171.017 184.08C169.897 184.08 168.79 184.293 167.697 184.72C166.63 185.12 165.51 185.72 164.337 186.52L163.297 184.6C164.657 183.667 165.99 182.973 167.297 182.52C168.604 182.04 169.937 181.8 171.297 181.8C173.857 181.8 175.884 182.533 177.377 184C178.87 185.467 179.617 187.493 179.617 190.08V199.72C179.617 200.093 179.697 200.373 179.857 200.56C180.017 200.72 180.27 200.813 180.617 200.84V203C180.324 203.027 180.07 203.053 179.857 203.08C179.644 203.107 179.484 203.107 179.377 203.08C178.71 203.053 178.204 202.84 177.857 202.44C177.51 202.04 177.324 201.613 177.297 201.16L177.257 199.64C176.324 200.84 175.11 201.773 173.617 202.44C172.124 203.08 170.604 203.4 169.057 203.4C167.724 203.4 166.51 203.12 165.417 202.56C164.35 201.973 163.51 201.2 162.897 200.24C162.31 199.253 162.017 198.173 162.017 197ZM175.977 198.6C176.27 198.227 176.497 197.867 176.657 197.52C176.817 197.173 176.897 196.867 176.897 196.6V193.56C175.99 193.213 175.044 192.947 174.057 192.76C173.097 192.573 172.124 192.48 171.137 192.48C169.19 192.48 167.617 192.867 166.417 193.64C165.217 194.413 164.617 195.467 164.617 196.8C164.617 197.573 164.817 198.307 165.217 199C165.617 199.667 166.204 200.227 166.977 200.68C167.75 201.107 168.657 201.32 169.697 201.32C171.004 201.32 172.217 201.067 173.337 200.56C174.484 200.053 175.364 199.4 175.977 198.6ZM202.214 203H199.494V191.36C199.494 188.907 199.134 187.12 198.414 186C197.694 184.853 196.56 184.28 195.014 184.28C193.947 184.28 192.894 184.547 191.854 185.08C190.814 185.587 189.894 186.293 189.094 187.2C188.32 188.08 187.76 189.093 187.414 190.24V203H184.694V182.16H187.174V186.88C187.734 185.867 188.467 184.987 189.374 184.24C190.28 183.467 191.307 182.867 192.454 182.44C193.6 182.013 194.787 181.8 196.014 181.8C197.16 181.8 198.134 182.013 198.934 182.44C199.734 182.867 200.374 183.48 200.854 184.28C201.334 185.053 201.68 186 201.894 187.12C202.107 188.213 202.214 189.44 202.214 190.8V203ZM214.929 197C214.929 195.693 215.303 194.573 216.049 193.64C216.796 192.68 217.823 191.947 219.129 191.44C220.463 190.907 221.996 190.64 223.729 190.64C224.743 190.64 225.796 190.72 226.889 190.88C227.983 191.04 228.956 191.28 229.809 191.6V189.84C229.809 188.08 229.289 186.68 228.249 185.64C227.209 184.6 225.769 184.08 223.929 184.08C222.809 184.08 221.703 184.293 220.609 184.72C219.543 185.12 218.423 185.72 217.249 186.52L216.209 184.6C217.569 183.667 218.903 182.973 220.209 182.52C221.516 182.04 222.849 181.8 224.209 181.8C226.769 181.8 228.796 182.533 230.289 184C231.783 185.467 232.529 187.493 232.529 190.08V199.72C232.529 200.093 232.609 200.373 232.769 200.56C232.929 200.72 233.183 200.813 233.529 200.84V203C233.236 203.027 232.983 203.053 232.769 203.08C232.556 203.107 232.396 203.107 232.289 203.08C231.623 203.053 231.116 202.84 230.769 202.44C230.423 202.04 230.236 201.613 230.209 201.16L230.169 199.64C229.236 200.84 228.023 201.773 226.529 202.44C225.036 203.08 223.516 203.4 221.969 203.4C220.636 203.4 219.423 203.12 218.329 202.56C217.263 201.973 216.423 201.2 215.809 200.24C215.223 199.253 214.929 198.173 214.929 197ZM228.889 198.6C229.183 198.227 229.409 197.867 229.569 197.52C229.729 197.173 229.809 196.867 229.809 196.6V193.56C228.903 193.213 227.956 192.947 226.969 192.76C226.009 192.573 225.036 192.48 224.049 192.48C222.103 192.48 220.529 192.867 219.329 193.64C218.129 194.413 217.529 195.467 217.529 196.8C217.529 197.573 217.729 198.307 218.129 199C218.529 199.667 219.116 200.227 219.889 200.68C220.663 201.107 221.569 201.32 222.609 201.32C223.916 201.32 225.129 201.067 226.249 200.56C227.396 200.053 228.276 199.4 228.889 198.6ZM272.109 182.16H274.789L265.829 203H263.469L259.109 192.64L254.789 203H252.429L243.469 182.16H246.109L253.709 200.2L257.549 190.8L254.029 182.2H256.469L259.109 188.96L261.789 182.2H264.189L260.709 190.8L264.549 200.2L272.109 182.16ZM285.905 203.4C284.411 203.4 283.025 203.12 281.745 202.56C280.465 201.973 279.358 201.187 278.425 200.2C277.491 199.187 276.758 198.027 276.225 196.72C275.718 195.413 275.465 194.013 275.465 192.52C275.465 190.573 275.905 188.787 276.785 187.16C277.691 185.533 278.931 184.24 280.505 183.28C282.078 182.293 283.865 181.8 285.865 181.8C287.918 181.8 289.705 182.293 291.225 183.28C292.771 184.267 293.985 185.573 294.865 187.2C295.745 188.8 296.185 190.56 296.185 192.48C296.185 192.693 296.185 192.907 296.185 193.12C296.185 193.307 296.171 193.453 296.145 193.56H278.305C278.438 195.053 278.851 196.387 279.545 197.56C280.265 198.707 281.185 199.627 282.305 200.32C283.451 200.987 284.691 201.32 286.025 201.32C287.385 201.32 288.665 200.973 289.865 200.28C291.091 199.587 291.945 198.68 292.425 197.56L294.785 198.2C294.358 199.187 293.705 200.08 292.825 200.88C291.945 201.68 290.905 202.307 289.705 202.76C288.531 203.187 287.265 203.4 285.905 203.4ZM278.225 191.6H293.625C293.518 190.08 293.105 188.747 292.385 187.6C291.691 186.453 290.771 185.56 289.625 184.92C288.505 184.253 287.265 183.92 285.905 183.92C284.545 183.92 283.305 184.253 282.185 184.92C281.065 185.56 280.145 186.467 279.425 187.64C278.731 188.787 278.331 190.107 278.225 191.6ZM309.781 203.4C308.155 203.4 306.648 202.987 305.261 202.16C303.875 201.307 302.795 200.24 302.021 198.96V203H299.581V173.8H302.301V186.52C303.235 185.107 304.355 183.973 305.661 183.12C306.968 182.24 308.488 181.8 310.221 181.8C311.688 181.8 312.995 182.107 314.141 182.72C315.315 183.333 316.315 184.16 317.141 185.2C317.968 186.213 318.595 187.373 319.021 188.68C319.448 189.96 319.661 191.28 319.661 192.64C319.661 194.107 319.408 195.48 318.901 196.76C318.421 198.04 317.728 199.187 316.821 200.2C315.915 201.187 314.861 201.973 313.661 202.56C312.488 203.12 311.195 203.4 309.781 203.4ZM309.141 201C310.261 201 311.301 200.773 312.261 200.32C313.221 199.867 314.048 199.24 314.741 198.44C315.435 197.64 315.968 196.747 316.341 195.76C316.715 194.747 316.901 193.707 316.901 192.64C316.901 191.173 316.581 189.8 315.941 188.52C315.328 187.213 314.461 186.173 313.341 185.4C312.248 184.6 310.955 184.2 309.461 184.2C308.395 184.2 307.395 184.44 306.461 184.92C305.555 185.4 304.741 186.04 304.021 186.84C303.328 187.613 302.755 188.467 302.301 189.4V195.88C302.408 196.6 302.688 197.28 303.141 197.92C303.595 198.533 304.155 199.067 304.821 199.52C305.515 199.973 306.235 200.333 306.981 200.6C307.728 200.867 308.448 201 309.141 201ZM331.184 197C331.184 195.693 331.557 194.573 332.304 193.64C333.051 192.68 334.077 191.947 335.384 191.44C336.717 190.907 338.251 190.64 339.984 190.64C340.997 190.64 342.051 190.72 343.144 190.88C344.237 191.04 345.211 191.28 346.064 191.6V189.84C346.064 188.08 345.544 186.68 344.504 185.64C343.464 184.6 342.024 184.08 340.184 184.08C339.064 184.08 337.957 184.293 336.864 184.72C335.797 185.12 334.677 185.72 333.504 186.52L332.464 184.6C333.824 183.667 335.157 182.973 336.464 182.52C337.771 182.04 339.104 181.8 340.464 181.8C343.024 181.8 345.051 182.533 346.544 184C348.037 185.467 348.784 187.493 348.784 190.08V199.72C348.784 200.093 348.864 200.373 349.024 200.56C349.184 200.72 349.437 200.813 349.784 200.84V203C349.491 203.027 349.237 203.053 349.024 203.08C348.811 203.107 348.651 203.107 348.544 203.08C347.877 203.053 347.371 202.84 347.024 202.44C346.677 202.04 346.491 201.613 346.464 201.16L346.424 199.64C345.491 200.84 344.277 201.773 342.784 202.44C341.291 203.08 339.771 203.4 338.224 203.4C336.891 203.4 335.677 203.12 334.584 202.56C333.517 201.973 332.677 201.2 332.064 200.24C331.477 199.253 331.184 198.173 331.184 197ZM345.144 198.6C345.437 198.227 345.664 197.867 345.824 197.52C345.984 197.173 346.064 196.867 346.064 196.6V193.56C345.157 193.213 344.211 192.947 343.224 192.76C342.264 192.573 341.291 192.48 340.304 192.48C338.357 192.48 336.784 192.867 335.584 193.64C334.384 194.413 333.784 195.467 333.784 196.8C333.784 197.573 333.984 198.307 334.384 199C334.784 199.667 335.371 200.227 336.144 200.68C336.917 201.107 337.824 201.32 338.864 201.32C340.171 201.32 341.384 201.067 342.504 200.56C343.651 200.053 344.531 199.4 345.144 198.6ZM362.221 203.28C360.808 203.28 359.501 202.987 358.301 202.4C357.101 201.813 356.061 201.027 355.181 200.04C354.328 199.027 353.661 197.88 353.181 196.6C352.701 195.32 352.461 194 352.461 192.64C352.461 191.173 352.688 189.8 353.141 188.52C353.621 187.213 354.288 186.053 355.141 185.04C356.021 184.027 357.048 183.24 358.221 182.68C359.394 182.093 360.701 181.8 362.141 181.8C363.928 181.8 365.474 182.253 366.781 183.16C368.114 184.067 369.234 185.187 370.141 186.52V182.16H372.581V203.08C372.581 205 372.114 206.613 371.181 207.92C370.274 209.253 369.034 210.253 367.461 210.92C365.914 211.587 364.221 211.92 362.381 211.92C360.008 211.92 358.088 211.493 356.621 210.64C355.154 209.787 353.954 208.64 353.021 207.2L354.701 205.88C355.528 207.187 356.621 208.16 357.981 208.8C359.368 209.44 360.834 209.76 362.381 209.76C363.741 209.76 364.981 209.507 366.101 209C367.248 208.52 368.154 207.787 368.821 206.8C369.514 205.813 369.861 204.573 369.861 203.08V198.96C369.061 200.267 367.968 201.32 366.581 202.12C365.194 202.893 363.741 203.28 362.221 203.28ZM362.981 201C363.808 201 364.594 200.853 365.341 200.56C366.114 200.267 366.821 199.88 367.461 199.4C368.101 198.893 368.634 198.333 369.061 197.72C369.488 197.107 369.754 196.48 369.861 195.84V189.4C369.461 188.387 368.888 187.493 368.141 186.72C367.394 185.92 366.541 185.307 365.581 184.88C364.648 184.427 363.674 184.2 362.661 184.2C361.488 184.2 360.434 184.453 359.501 184.96C358.594 185.44 357.821 186.093 357.181 186.92C356.568 187.72 356.088 188.627 355.741 189.64C355.394 190.653 355.221 191.667 355.221 192.68C355.221 193.8 355.421 194.867 355.821 195.88C356.221 196.867 356.768 197.76 357.461 198.56C358.181 199.333 359.008 199.933 359.941 200.36C360.901 200.787 361.914 201 362.981 201ZM386.788 203.4C385.294 203.4 383.908 203.12 382.628 202.56C381.348 201.973 380.241 201.187 379.308 200.2C378.374 199.187 377.641 198.027 377.108 196.72C376.601 195.413 376.348 194.013 376.348 192.52C376.348 190.573 376.788 188.787 377.668 187.16C378.574 185.533 379.814 184.24 381.388 183.28C382.961 182.293 384.748 181.8 386.748 181.8C388.801 181.8 390.588 182.293 392.108 183.28C393.654 184.267 394.868 185.573 395.748 187.2C396.628 188.8 397.068 190.56 397.068 192.48C397.068 192.693 397.068 192.907 397.068 193.12C397.068 193.307 397.054 193.453 397.028 193.56H379.188C379.321 195.053 379.734 196.387 380.428 197.56C381.148 198.707 382.068 199.627 383.188 200.32C384.334 200.987 385.574 201.32 386.908 201.32C388.268 201.32 389.548 200.973 390.748 200.28C391.974 199.587 392.828 198.68 393.308 197.56L395.668 198.2C395.241 199.187 394.588 200.08 393.708 200.88C392.828 201.68 391.788 202.307 390.588 202.76C389.414 203.187 388.148 203.4 386.788 203.4ZM379.108 191.6H394.508C394.401 190.08 393.988 188.747 393.268 187.6C392.574 186.453 391.654 185.56 390.508 184.92C389.388 184.253 388.148 183.92 386.788 183.92C385.428 183.92 384.188 184.253 383.068 184.92C381.948 185.56 381.028 186.467 380.308 187.64C379.614 188.787 379.214 190.107 379.108 191.6ZM417.984 203H415.264V191.36C415.264 188.907 414.904 187.12 414.184 186C413.464 184.853 412.331 184.28 410.784 184.28C409.717 184.28 408.664 184.547 407.624 185.08C406.584 185.587 405.664 186.293 404.864 187.2C404.091 188.08 403.531 189.093 403.184 190.24V203H400.464V182.16H402.944V186.88C403.504 185.867 404.237 184.987 405.144 184.24C406.051 183.467 407.077 182.867 408.224 182.44C409.371 182.013 410.557 181.8 411.784 181.8C412.931 181.8 413.904 182.013 414.704 182.44C415.504 182.867 416.144 183.48 416.624 184.28C417.104 185.053 417.451 186 417.664 187.12C417.877 188.213 417.984 189.44 417.984 190.8V203ZM432.024 203.4C430.504 203.4 429.104 203.12 427.824 202.56C426.571 201.973 425.464 201.173 424.504 200.16C423.571 199.147 422.838 197.987 422.304 196.68C421.798 195.373 421.544 193.987 421.544 192.52C421.544 190.547 421.984 188.747 422.864 187.12C423.744 185.493 424.971 184.2 426.544 183.24C428.118 182.28 429.931 181.8 431.984 181.8C433.931 181.8 435.651 182.253 437.144 183.16C438.638 184.04 439.744 185.24 440.464 186.76L437.824 187.6C437.238 186.533 436.411 185.707 435.344 185.12C434.304 184.507 433.144 184.2 431.864 184.2C430.478 184.2 429.211 184.56 428.064 185.28C426.918 186 425.998 186.987 425.304 188.24C424.638 189.493 424.304 190.92 424.304 192.52C424.304 194.093 424.651 195.52 425.344 196.8C426.038 198.08 426.958 199.107 428.104 199.88C429.251 200.627 430.518 201 431.904 201C432.811 201 433.678 200.84 434.504 200.52C435.358 200.2 436.091 199.773 436.704 199.24C437.344 198.68 437.771 198.08 437.984 197.44L440.664 198.24C440.291 199.227 439.664 200.12 438.784 200.92C437.931 201.693 436.918 202.307 435.744 202.76C434.598 203.187 433.358 203.4 432.024 203.4ZM445.025 209.4C445.398 209.427 445.758 209.44 446.105 209.44C446.452 209.467 446.705 209.453 446.865 209.4C447.185 209.347 447.492 209.16 447.785 208.84C448.078 208.52 448.425 207.907 448.825 207C449.225 206.093 449.785 204.76 450.505 203L441.425 182.16H444.305L451.945 200.2L458.985 182.16H461.705L450.905 209.04C450.718 209.547 450.438 210.013 450.065 210.44C449.692 210.893 449.225 211.24 448.665 211.48C448.132 211.747 447.465 211.893 446.665 211.92C446.425 211.947 446.172 211.947 445.905 211.92C445.665 211.92 445.372 211.893 445.025 211.84V209.4Z" fill="#F8F8FF"/>
</svg>
